<?xml version="1.0" encoding="utf-8"?>
<!-- Generator: Adobe Illustrator 25.2.0, SVG Export Plug-In . SVG Version: 6.00 Build 0)  -->
<svg version="1.1" id="Layer_1" xmlns="http://www.w3.org/2000/svg" xmlns:xlink="http://www.w3.org/1999/xlink" x="0px" y="0px"
	 viewBox="0 0 250 250" style="enable-background:new 0 0 250 250;" xml:space="preserve">
<style type="text/css">
	.st0{fill:#DE333A;}
	.st1{fill:#F58759;}
	.st2{fill:#FDBF68;}
	.st3{fill:#FAAD68;}
	.st4{fill:#FFFDFA;}
	.st5{fill:#FCD4CF;}
	.st6{fill:#F9B8B1;}
</style>
<rect x="-4.76" y="-2.51" class="st0" width="258.43" height="254.49"/>
<g>
	<path class="st1" d="M159.74,174.71H82.98l0,0V89.43c0-21.2,17.18-38.38,38.38-38.38s38.38,17.18,38.38,38.38V174.71L159.74,174.71
		z"/>
	<path class="st2" d="M168.12,221.62c0.1-1.37,0.14-2.79,0.14-4.26c0-30.62-12.79-76.76-46.91-76.76s-46.91,46.14-46.91,76.76
		c0,1.47,0.05,2.9,0.14,4.26H168.12z"/>
	<path class="st3" d="M90.99,165.12h-4.67c-8.33,15.72-11.87,36.13-11.87,52.24c0,1.47,0.05,2.9,0.14,4.26h26.67L90.99,165.12z"/>
	<path class="st4" d="M146.95,149.13l-8.53,29.85l-17.06-12.79l12.79-21.32L146.95,149.13z"/>
	<path class="st4" d="M95.77,149.13l8.53,29.85l17.06-12.79l-12.79-21.32L95.77,149.13z"/>
	<path class="st5" d="M112.83,123.54h17.06l4.26,21.32l-12.79,21.32l-12.79-21.32L112.83,123.54z"/>
	<path class="st6" d="M129.89,123.54h-17.06l-2.61,13.04l0.71,0.43c6.41,3.85,14.43,3.85,20.84,0l0.71-0.43L129.89,123.54z"/>
	<path class="st5" d="M104.3,93.69c10.81,0,20.45-6.79,24.1-16.97c8.12,0.87,14.28,7.73,14.28,15.9v20.62
		c0,3.74-1.96,7.22-5.18,9.14l-10.66,6.4c-3.38,2.03-7.59,2.03-10.97,0l-10.66-6.4c-3.21-1.93-5.18-5.4-5.18-9.14V93.69H104.3z"/>
</g>
</svg>
