<?xml version="1.0" encoding="utf-8"?>
<!-- Generator: Adobe Illustrator 25.2.0, SVG Export Plug-In . SVG Version: 6.00 Build 0)  -->
<svg version="1.1" id="Layer_1" xmlns="http://www.w3.org/2000/svg" xmlns:xlink="http://www.w3.org/1999/xlink" x="0px" y="0px"
	 viewBox="0 0 1920 480" style="enable-background:new 0 0 1920 480;" xml:space="preserve">
<style type="text/css">
	.st0{fill:#DF343A;}
	.st1{clip-path:url(#SVGID_2_);}
	.st2{fill:#36506C;}
	.st3{fill:#FCDFDF;}
	.st4{fill:#B46428;}
	.st5{opacity:0.68;}
	.st6{fill:#FFFFFF;}
</style>
<g id="Group_1300" transform="translate(723 -97)">
	<rect id="Rectangle_21" x="-720" y="-235.85" class="st0" width="1920" height="1182.72"/>
	<g>
		<defs>
			<rect id="SVGID_1_" x="-720" y="-350.51" width="1920" height="1182.72"/>
		</defs>
		<clipPath id="SVGID_2_">
			<use xlink:href="#SVGID_1_"  style="overflow:visible;"/>
		</clipPath>
		<g id="Group_1299" transform="translate(-723 97)" class="st1">
			<g id="Group_1230" transform="translate(302.943 156.972)">
				<g id="Group_1227" transform="translate(43.779 38.988)">
					<circle id="Ellipse_26" class="st2" cx="1502.08" cy="218.49" r="27.67"/>
				</g>
				<g id="Group_1229">
					<g id="Group_1228">
						<path id="Path_677" class="st3" d="M1602.07,118.98c-115.05,0-208.32,93.27-208.32,208.32l0,0
							c0,115.05,93.27,208.32,208.32,208.32l0,0c115.05,0,208.32-93.27,208.32-208.32l0,0
							C1810.39,212.25,1717.12,118.98,1602.07,118.98L1602.07,118.98z M1602.07,491.78c-90.84,0-164.48-73.64-164.48-164.48l0,0
							c0-90.84,73.64-164.48,164.48-164.48c90.84,0,164.48,73.64,164.48,164.48C1766.55,418.14,1692.91,491.78,1602.07,491.78
							L1602.07,491.78z"/>
					</g>
				</g>
			</g>
			<g id="Group_1297" transform="translate(-78.071 161.171)">
				<g id="Group_1231" transform="translate(82.984 3.216)">
					<path id="Path_678" class="st4" d="M124.29,88.74l-28.72,28.72c-1.46-0.26-2.93-0.5-4.4-0.72l29.24-29.24
						C121.71,87.89,123,88.31,124.29,88.74z"/>
				</g>
				<g id="Group_1232" transform="translate(89.652 5.307)">
					<path id="Path_679" class="st4" d="M130.65,91.57l-27.29,27.29c-1.32-0.4-2.65-0.78-3.98-1.13l27.65-27.65
						C128.24,90.56,129.45,91.06,130.65,91.57z"/>
				</g>
				<g id="Group_1233" transform="translate(95.715 7.797)">
					<path id="Path_680" class="st4" d="M136.76,94.88l-26.27,26.26c-1.2-0.51-2.42-1.01-3.63-1.48l26.52-26.52
						C134.51,93.71,135.63,94.29,136.76,94.88z"/>
				</g>
				<g id="Group_1295">
					<g id="Group_1237" transform="translate(4.537 4.537)">
						<g id="Group_1236">
							<path id="Path_682" class="st4" d="M93.23,89.14L-5.5,187.87c1.04-2.86,2.17-5.69,3.38-8.5l86.86-86.86
								C87.54,91.31,90.37,90.18,93.23,89.14z"/>
						</g>
					</g>
					<g id="Group_1239" transform="translate(1.41 1.41)">
						<g id="Group_1238">
							<path id="Path_683" class="st3" d="M121.3,85.28L-9.36,215.93c0.43-2.19,0.91-4.37,1.43-6.55L114.75,86.7
								C116.92,86.18,119.11,85.71,121.3,85.28z"/>
						</g>
					</g>
					<g id="Group_1242" transform="translate(0.18 0.18)">
						<g id="Group_1241" transform="translate(40.85)">
							<path id="Path_685" class="st3" d="M102.39,83.76l-49.85,49.85c-4.51,2.39-8.87,5.05-13.07,7.95l57.32-57.32
								C98.66,84.05,100.52,83.89,102.39,83.76z"/>
						</g>
					</g>
					<g id="Group_1245" transform="translate(0.003 0.003)">
						<g id="Group_1244" transform="translate(56.771)">
							<path id="Path_687" class="st3" d="M104.88,83.67L66,122.54c-2.39,0.6-4.77,1.26-7.14,2.01l41.03-41.02
								C101.55,83.56,103.22,83.6,104.88,83.67z"/>
						</g>
					</g>
					<g id="Group_1248" transform="translate(0.468 0.466)">
						<g id="Group_1247" transform="translate(66.59)">
							<path id="Path_689" class="st3" d="M111.08,84.69l-33.83,33.83c-1.9,0.15-3.81,0.35-5.71,0.59l34.99-35
								C108.05,84.28,109.57,84.47,111.08,84.69z"/>
						</g>
					</g>
					<g id="Group_1251" transform="translate(1.577 1.577)">
						<g id="Group_1250" transform="translate(73.974)">
							<path id="Path_691" class="st3" d="M117.71,86.42l-30.77,30.77c-1.64-0.09-3.28-0.16-4.93-0.19l31.52-31.52
								C114.92,85.77,116.32,86.08,117.71,86.42z"/>
						</g>
					</g>
					<g id="Group_1256" transform="translate(101.263 10.652)">
						<path id="Path_696" class="st3" d="M142.58,98.62l-25.55,25.55c-1.1-0.62-2.21-1.21-3.33-1.79l25.72-25.72
							C140.48,97.3,141.53,97.95,142.58,98.62z"/>
					</g>
					<g id="Group_1258" transform="translate(106.353 13.846)">
						<path id="Path_698" class="st3" d="M148.12,102.77l-25.08,25.08c-1.01-0.71-2.04-1.39-3.06-2.05l25.19-25.2
							C146.15,101.31,147.14,102.03,148.12,102.77z"/>
					</g>
					<g id="Group_1260" transform="translate(111.025 17.364)">
						<path id="Path_700" class="st3" d="M153.36,107.3l-24.83,24.82c-0.93-0.79-1.86-1.56-2.81-2.31l24.88-24.88
							C151.53,105.72,152.45,106.51,153.36,107.3z"/>
					</g>
					<g id="Group_1262" transform="translate(115.302 21.191)">
						<path id="Path_702" class="st3" d="M158.31,112.21l-24.76,24.76c-0.4-0.41-0.8-0.81-1.2-1.22c-0.45-0.45-0.89-0.89-1.36-1.34
							l24.76-24.76c0.45,0.45,0.9,0.89,1.36,1.34C157.51,111.39,157.91,111.8,158.31,112.21z"/>
					</g>
					<g id="Group_1264" transform="translate(119.19 25.32)">
						<path id="Path_704" class="st3" d="M162.98,117.49l-24.87,24.87c-0.75-0.94-1.53-1.88-2.31-2.8l24.83-24.82
							C161.41,115.65,162.2,116.57,162.98,117.49z"/>
					</g>
					<g id="Group_1266" transform="translate(122.688 29.756)">
						<path id="Path_706" class="st3" d="M167.34,123.16l-25.19,25.19c-0.67-1.03-1.35-2.05-2.05-3.06l25.08-25.08
							C165.91,121.18,166.63,122.17,167.34,123.16z"/>
					</g>
					<g id="Group_1268" transform="translate(125.773 34.511)">
						<path id="Path_708" class="st3" d="M171.4,129.22l-25.72,25.72c-0.58-1.12-1.17-2.23-1.79-3.33l25.54-25.54
							C170.1,127.11,170.76,128.17,171.4,129.22z"/>
					</g>
					<g id="Group_1270" transform="translate(128.414 39.6)">
						<path id="Path_710" class="st3" d="M175.15,135.72l-26.5,26.5c-0.48-1.21-0.97-2.42-1.49-3.63l26.25-26.25
							C174,133.46,174.58,134.59,175.15,135.72z"/>
					</g>
					<g id="Group_1272" transform="translate(130.562 45.045)">
						<path id="Path_712" class="st3" d="M178.57,142.66l-27.63,27.63c-0.36-1.33-0.74-2.66-1.14-3.98l27.27-27.27
							C177.58,140.25,178.08,141.45,178.57,142.66z"/>
					</g>
					<g id="Group_1274" transform="translate(132.135 50.877)">
						<path id="Path_714" class="st3" d="M181.67,150.11l-29.21,29.21c-0.22-1.47-0.46-2.93-0.73-4.38l28.7-28.7
							C180.87,147.52,181.28,148.82,181.67,150.11z"/>
					</g>
					<g id="Group_1277" transform="translate(57.144 57.144)">
						<g id="Group_1276" transform="translate(75.859)">
							<path id="Path_716" class="st3" d="M184.48,158.14L153,189.61c-0.03-1.64-0.1-3.27-0.2-4.91l30.73-30.73
								C183.88,155.35,184.2,156.74,184.48,158.14z"/>
						</g>
					</g>
					<g id="Group_1280" transform="translate(63.912 63.912)">
						<g id="Group_1279" transform="translate(68.753)">
							<path id="Path_718" class="st3" d="M187.32,166.84l-34.92,34.92c0.23-1.9,0.42-3.79,0.58-5.7l33.77-33.77
								C186.96,163.81,187.15,165.32,187.32,166.84z"/>
						</g>
					</g>
					<g id="Group_1283" transform="translate(71.287 71.287)">
						<g id="Group_1282" transform="translate(59.181)">
							<path id="Path_720" class="st3" d="M190.57,176.37l-40.89,40.89c0.73-2.35,1.39-4.72,1.98-7.1l38.77-38.77
								C190.5,173.04,190.56,174.71,190.57,176.37z"/>
						</g>
					</g>
					<g id="Group_1286" transform="translate(79.441 79.441)">
						<g id="Group_1285" transform="translate(43.549)">
							<path id="Path_722" class="st3" d="M197.68,181.44c-0.12,1.86-0.28,3.72-0.48,5.58l-56.74,56.74
								c2.79-4.1,5.34-8.37,7.65-12.76L197.68,181.44z"/>
						</g>
					</g>
					<g id="Group_1288" transform="translate(88.697 88.696)">
						<g id="Group_1287">
							<path id="Path_723" class="st3" d="M229.28,192.84c-0.43,2.18-0.9,4.36-1.42,6.53L104.74,322.49
								c-2.17,0.52-4.34,0.99-6.53,1.42L229.28,192.84z"/>
						</g>
					</g>
					<g id="Group_1290" transform="translate(99.828 99.828)">
						<g id="Group_1289">
							<path id="Path_724" class="st3" d="M211.26,206.56c-1.03,2.84-2.14,5.66-3.33,8.45l-87.55,87.55
								c-2.79,1.19-5.61,2.3-8.45,3.33L211.26,206.56z"/>
						</g>
					</g>
					<g id="Group_1294">
						<g id="Group_1293">
							<path id="Path_726" class="st3" d="M321.04,247.66c-0.02-1.66-0.06-3.32-0.14-4.98c-0.16-3.98-0.47-7.96-0.92-11.92
								c-0.17-1.52-0.36-3.03-0.58-4.54c-0.51-3.66-1.15-7.31-1.92-10.94c-0.3-1.4-0.61-2.79-0.94-4.18
								c-0.8-3.39-1.71-6.77-2.74-10.11c-0.4-1.29-0.81-2.59-1.24-3.88c-1.05-3.17-2.2-6.3-3.44-9.41c-0.48-1.21-0.98-2.41-1.5-3.61
								c-1.27-2.96-2.62-5.88-4.07-8.78c-0.56-1.13-1.14-2.26-1.74-3.38c-1.46-2.77-3.01-5.5-4.65-8.2
								c-0.64-1.06-1.29-2.11-1.96-3.16c-1.65-2.59-3.38-5.15-5.18-7.67c-0.71-0.99-1.43-1.97-2.17-2.95
								c-1.82-2.43-3.72-4.81-5.69-7.14c-0.78-0.92-1.56-1.84-2.36-2.75c-1.99-2.27-4.05-4.49-6.19-6.66
								c-0.4-0.41-0.8-0.81-1.2-1.22c-0.45-0.45-0.89-0.89-1.36-1.34c-2.18-2.13-4.4-4.19-6.67-6.18c-0.91-0.8-1.83-1.59-2.75-2.36
								c-2.35-1.97-4.73-3.87-7.16-5.69c-0.98-0.74-1.96-1.47-2.95-2.17c-2.52-1.81-5.08-3.53-7.67-5.17
								c-1.04-0.67-2.1-1.32-3.16-1.96c-2.7-1.64-5.44-3.18-8.21-4.64c-1.12-0.6-2.25-1.17-3.38-1.74c-2.9-1.44-5.82-2.8-8.79-4.07
								c-1.2-0.51-2.41-1.01-3.62-1.49c-3.11-1.25-6.25-2.39-9.41-3.43c-1.29-0.43-2.58-0.85-3.88-1.24
								c-3.35-1.02-6.73-1.93-10.13-2.73c-1.39-0.33-2.79-0.64-4.18-0.93c-3.63-0.76-7.28-1.39-10.94-1.91
								c-1.51-0.22-3.02-0.41-4.54-0.57c-3.97-0.45-7.95-0.75-11.94-0.91c-1.66-0.07-3.32-0.11-4.99-0.13
								c-4.42-0.04-8.83,0.09-13.24,0.39c-1.87,0.13-3.74,0.29-5.6,0.48c-5.06,0.52-10.1,1.28-15.11,2.26
								c-2.19,0.43-4.37,0.91-6.55,1.43c-6.24,1.49-12.38,3.34-18.4,5.55c-2.86,1.04-5.69,2.17-8.5,3.38
								c-10.14,4.36-19.81,9.73-28.88,16.03c-8.17,5.68-15.81,12.07-22.84,19.11c-7.04,7.03-13.43,14.68-19.11,22.84
								c-6.3,9.06-11.67,18.74-16.03,28.88c-1.21,2.81-2.33,5.64-3.38,8.5c-2.21,6.02-4.06,12.16-5.55,18.4
								c-0.52,2.17-1,4.36-1.43,6.55l0,0c-0.99,5-1.74,10.04-2.26,15.11c-0.2,1.86-0.36,3.73-0.49,5.6
								c-0.3,4.41-0.43,8.82-0.39,13.24c0.02,1.66,0.06,3.33,0.13,4.99c0.16,3.99,0.46,7.97,0.91,11.94
								c0.17,1.52,0.36,3.03,0.57,4.54c0.51,3.66,1.15,7.31,1.91,10.94c0.29,1.4,0.6,2.79,0.93,4.18c0.8,3.4,1.7,6.78,2.73,10.13
								c0.39,1.3,0.81,2.59,1.24,3.88c1.04,3.17,2.19,6.3,3.43,9.41c0.48,1.21,0.98,2.42,1.49,3.62c1.27,2.96,2.62,5.89,4.06,8.78
								c0.56,1.13,1.14,2.26,1.74,3.38c1.46,2.77,3,5.51,4.64,8.21c0.64,1.06,1.29,2.11,1.96,3.16c1.64,2.59,3.36,5.15,5.17,7.67
								c0.71,0.99,1.43,1.97,2.17,2.95c1.82,2.43,3.71,4.82,5.69,7.16c0.77,0.92,1.56,1.84,2.36,2.75c1.99,2.27,4.04,4.49,6.18,6.67
								c0.45,0.45,0.89,0.9,1.34,1.36c0.4,0.4,0.81,0.81,1.22,1.2c2.18,2.14,4.4,4.2,6.66,6.19c0.91,0.8,1.83,1.59,2.75,2.36
								c2.34,1.97,4.72,3.87,7.14,5.69c0.97,0.74,1.96,1.47,2.95,2.17c2.52,1.81,5.07,3.54,7.67,5.18c1.04,0.67,2.1,1.32,3.16,1.96
								c2.7,1.64,5.43,3.19,8.2,4.65c1.12,0.6,2.25,1.17,3.38,1.74c2.89,1.45,5.82,2.81,8.78,4.07c1.2,0.52,2.4,1.02,3.61,1.5
								c3.11,1.25,6.24,2.4,9.41,3.44c1.29,0.43,2.58,0.84,3.88,1.24c3.35,1.02,6.72,1.93,10.11,2.74c1.39,0.33,2.78,0.65,4.18,0.94
								c3.63,0.76,7.27,1.4,10.94,1.92c1.51,0.22,3.02,0.41,4.54,0.58c3.97,0.46,7.94,0.76,11.92,0.92
								c1.66,0.07,3.32,0.12,4.98,0.13c4.41,0.06,8.82-0.07,13.22-0.37c1.86-0.12,3.72-0.28,5.58-0.48
								c5.05-0.51,10.07-1.25,15.07-2.23c2.18-0.43,4.36-0.9,6.53-1.42c6.21-1.47,12.32-3.29,18.32-5.47
								c2.84-1.03,5.66-2.14,8.45-3.33c9.98-4.26,19.52-9.49,28.47-15.63c8.5-5.82,16.45-12.41,23.73-19.7
								c7.29-7.29,13.9-15.23,19.72-23.73c6.14-8.95,11.37-18.49,15.63-28.47c1.19-2.79,2.3-5.61,3.33-8.45
								c2.18-5.99,4.01-12.11,5.47-18.32c0.52-2.17,0.99-4.35,1.42-6.53c0.97-4.99,1.72-10.02,2.23-15.07
								c0.19-1.86,0.35-3.72,0.48-5.58C320.98,256.48,321.09,252.07,321.04,247.66z M263.45,323.2c-4.66,6.84-9.95,13.23-15.8,19.09
								c-5.85,5.86-12.24,11.15-19.08,15.8c-4.11,2.79-8.37,5.34-12.76,7.65c-7.01,3.67-14.34,6.7-21.89,9.05
								c-2.35,0.73-4.71,1.39-7.1,1.98c-5.19,1.3-10.46,2.28-15.77,2.92c-1.9,0.23-3.8,0.42-5.7,0.58
								c-4.4,0.35-8.81,0.47-13.22,0.38c-1.64-0.03-3.27-0.1-4.91-0.2c-3.89-0.23-7.77-0.63-11.64-1.21
								c-1.47-0.22-2.93-0.46-4.38-0.73c-3.52-0.65-7.01-1.44-10.48-2.37c-1.33-0.36-2.65-0.74-3.97-1.14
								c-3.21-0.97-6.4-2.08-9.55-3.31c-1.21-0.48-2.42-0.97-3.63-1.49c-2.95-1.26-5.86-2.63-8.74-4.11
								c-1.12-0.58-2.23-1.17-3.33-1.79c-2.71-1.5-5.39-3.11-8.02-4.83c-1.03-0.67-2.05-1.35-3.06-2.05
								c-2.5-1.73-4.96-3.56-7.37-5.49c-0.94-0.75-1.88-1.53-2.8-2.31c-2.3-1.95-4.54-3.99-6.73-6.12c-0.41-0.4-0.81-0.8-1.22-1.2
								c-0.45-0.45-0.89-0.89-1.34-1.36c-2.13-2.19-4.17-4.44-6.11-6.74c-0.78-0.92-1.55-1.86-2.31-2.81
								c-1.93-2.4-3.75-4.86-5.48-7.37c-0.71-1.01-1.39-2.03-2.05-3.06c-1.72-2.63-3.32-5.31-4.82-8.04
								c-0.62-1.1-1.21-2.21-1.79-3.33c-1.48-2.87-2.85-5.79-4.1-8.75c-0.52-1.2-1.01-2.42-1.48-3.63c-1.23-3.15-2.33-6.33-3.3-9.55
								c-0.4-1.32-0.78-2.65-1.14-3.98c-0.93-3.47-1.72-6.97-2.36-10.49c-0.26-1.46-0.5-2.93-0.72-4.4
								c-0.57-3.87-0.97-7.76-1.19-11.66c-0.09-1.64-0.16-3.28-0.19-4.93c-0.09-4.42,0.04-8.85,0.4-13.25
								c0.15-1.9,0.35-3.81,0.59-5.71c0.66-5.33,1.66-10.62,2.97-15.82c0.6-2.39,1.27-4.77,2.01-7.13
								c2.39-7.63,5.48-15.02,9.22-22.07c2.39-4.51,5.05-8.87,7.95-13.07c4.51-6.51,9.59-12.6,15.19-18.19
								c5.6-5.6,11.68-10.68,18.19-15.19c4.2-2.91,8.56-5.56,13.07-7.95c7.06-3.75,14.45-6.84,22.07-9.22
								c2.36-0.74,4.74-1.41,7.14-2.01c5.21-1.32,10.49-2.31,15.82-2.97c1.9-0.24,3.8-0.44,5.71-0.59c4.41-0.36,8.83-0.49,13.25-0.4
								c1.64,0.03,3.28,0.09,4.93,0.19c3.9,0.22,7.79,0.62,11.66,1.19c1.47,0.21,2.93,0.45,4.4,0.72c3.52,0.64,7.02,1.43,10.49,2.36
								c1.34,0.35,2.66,0.73,3.98,1.13c3.22,0.97,6.4,2.07,9.55,3.3c1.22,0.47,2.43,0.96,3.63,1.48c2.95,1.25,5.87,2.62,8.75,4.1
								c1.12,0.58,2.23,1.17,3.33,1.79c2.72,1.5,5.4,3.1,8.04,4.82c1.03,0.66,2.05,1.35,3.07,2.05c2.5,1.73,4.96,3.55,7.37,5.48
								c0.95,0.75,1.88,1.52,2.81,2.31c2.3,1.95,4.54,3.99,6.74,6.11c0.45,0.45,0.91,0.89,1.36,1.34c0.41,0.41,0.8,0.81,1.2,1.22
								c2.13,2.19,4.17,4.43,6.12,6.73c0.79,0.93,1.56,1.86,2.31,2.8c1.93,2.4,3.77,4.86,5.49,7.37c0.7,1.01,1.39,2.03,2.05,3.06
								c1.72,2.63,3.33,5.3,4.83,8.02c0.61,1.1,1.21,2.21,1.79,3.33c1.49,2.87,2.86,5.78,4.11,8.73c0.51,1.2,1.01,2.41,1.49,3.63
								c1.23,3.14,2.33,6.32,3.31,9.54c0.4,1.32,0.78,2.65,1.14,3.98c0.94,3.46,1.73,6.96,2.37,10.48c0.27,1.46,0.51,2.92,0.73,4.38
								c0.58,3.87,0.98,7.75,1.21,11.64c0.1,1.64,0.16,3.27,0.2,4.91c0.09,4.41-0.03,8.82-0.38,13.22c-0.15,1.9-0.34,3.8-0.58,5.7
								c-0.65,5.31-1.63,10.58-2.92,15.77c-0.6,2.38-1.26,4.75-1.98,7.1c-2.34,7.56-5.37,14.89-9.05,21.89
								c-2.3,4.39-4.85,8.65-7.63,12.75L263.45,323.2z"/>
						</g>
					</g>
				</g>
				<g id="Group_1296" transform="translate(40.319 40.319)">
					<path id="Path_727" class="st2" d="M190.73,209.29c0,4.02-0.31,8.03-0.94,12.01c-0.34,2.17-0.77,4.31-1.3,6.42
						c-2,8.02-5.29,15.65-9.76,22.61c-5.93,9.25-13.79,17.1-23.04,23.04c-6.95,4.46-14.59,7.76-22.61,9.76
						c-2.1,0.52-4.24,0.96-6.41,1.3c-3.97,0.63-7.99,0.95-12.01,0.94c-0.59,0-1.18,0-1.77-0.02c-1.64-0.03-3.25-0.12-4.85-0.26
						c-3.73-0.32-7.43-0.92-11.07-1.79c-1.36-0.32-2.71-0.68-4.04-1.08c-3.2-0.95-6.33-2.11-9.38-3.48
						c-1.17-0.52-2.32-1.07-3.46-1.65c-2.79-1.42-5.48-3.02-8.07-4.78c-1.02-0.68-2.01-1.39-2.99-2.13c-2.43-1.83-4.75-3.8-6.95-5.9
						c-0.87-0.83-1.72-1.68-2.55-2.56c-2.1-2.2-4.06-4.53-5.88-6.97c-0.73-0.98-1.44-1.98-2.12-3c-1.75-2.6-3.34-5.3-4.75-8.09
						c-0.58-1.14-1.13-2.3-1.65-3.47c-1.36-3.05-2.51-6.19-3.45-9.39c-0.4-1.34-0.75-2.69-1.07-4.04c-0.86-3.65-1.44-7.36-1.75-11.1
						c-0.14-1.61-0.22-3.23-0.25-4.86c0-0.5-0.02-1-0.02-1.5c0-4.13,0.33-8.26,1-12.33c0.36-2.19,0.8-4.34,1.34-6.46
						c2.08-8.19,5.52-15.96,10.17-23.02c5.71-8.65,13.11-16.05,21.77-21.76c7.05-4.65,14.83-8.09,23.02-10.17
						c2.12-0.54,4.27-0.99,6.46-1.34c4.08-0.67,8.2-1,12.33-1c0.5,0,1,0,1.5,0.02c1.64,0.03,3.26,0.12,4.86,0.25
						c3.74,0.31,7.45,0.89,11.1,1.75c1.36,0.32,2.71,0.67,4.04,1.07c3.21,0.94,6.34,2.09,9.39,3.45c1.17,0.52,2.33,1.07,3.47,1.65
						c2.8,1.41,5.5,3,8.1,4.75c1.01,0.68,2.01,1.39,2.99,2.12c2.44,1.82,4.76,3.79,6.97,5.88c0.88,0.83,1.73,1.68,2.56,2.55
						c2.1,2.2,4.07,4.52,5.9,6.95c0.73,0.98,1.44,1.97,2.13,2.99c1.76,2.59,3.35,5.29,4.78,8.08c0.58,1.14,1.13,2.29,1.65,3.46
						c1.37,3.04,2.53,6.18,3.48,9.38c0.4,1.33,0.76,2.68,1.08,4.04c0.87,3.64,1.46,7.34,1.79,11.07c0.14,1.6,0.23,3.22,0.27,4.85
						C190.72,208.11,190.73,208.7,190.73,209.29z"/>
				</g>
			</g>
			<g id="Group_1298" transform="translate(340.153 81.386)">
				<path id="Path_728" class="st2" d="M1451.21-4.93l132.42,76.45v-152.9L1451.21-4.93z"/>
			</g>
		</g>
	</g>
	<g id="Group_1321" transform="translate(81.165 -3.747)" class="st5">
		<g id="Group_1304">
			<g id="Group_1301">
				<path id="Path_729" class="st6" d="M309.2,393.41c-0.43,0-0.85-0.17-1.16-0.48c-0.31-0.31-0.48-0.73-0.48-1.16
					c0-0.43,0.18-0.85,0.48-1.16c0.08-0.08,0.16-0.14,0.25-0.2c0.09-0.06,0.18-0.11,0.28-0.15c0.1-0.04,0.2-0.08,0.3-0.1
					c0.21-0.05,0.43-0.05,0.64,0c0.1,0.02,0.2,0.05,0.3,0.1c0.1,0.04,0.19,0.09,0.28,0.15c0.09,0.06,0.17,0.12,0.25,0.2
					c0.31,0.31,0.48,0.72,0.48,1.16c0,0.11-0.01,0.22-0.03,0.32c-0.02,0.1-0.05,0.2-0.1,0.3c-0.04,0.1-0.09,0.19-0.15,0.28
					c-0.06,0.09-0.13,0.17-0.2,0.25C310.04,393.23,309.63,393.41,309.2,393.41z"/>
			</g>
			<g id="Group_1302">
				<path id="Path_730" class="st6" d="M553.7,391.78c0-0.9,0.73-1.64,1.64-1.64c0,0,0,0,0,0l0,0c0.9,0,1.64,0.73,1.64,1.63
					c0,0,0,0,0,0l0,0c0,0.9-0.73,1.64-1.64,1.64l0,0C554.43,393.41,553.7,392.68,553.7,391.78z M529.08,391.78
					c0-0.9,0.73-1.64,1.64-1.64c0,0,0,0,0,0l0,0c0.9,0,1.64,0.73,1.64,1.63c0,0,0,0,0,0l0,0c0,0.9-0.73,1.64-1.64,1.64l0,0
					C529.82,393.41,529.08,392.68,529.08,391.78z M504.47,391.78c0-0.9,0.73-1.64,1.64-1.64c0,0,0,0,0,0l0,0
					c0.9,0,1.64,0.73,1.64,1.63c0,0,0,0,0,0l0,0c0,0.9-0.73,1.64-1.64,1.64l0,0C505.2,393.41,504.47,392.68,504.47,391.78z
					 M479.86,391.78c0-0.9,0.73-1.64,1.64-1.64c0,0,0,0,0,0l0,0c0.9,0,1.64,0.73,1.64,1.63c0,0,0,0,0,0l0,0
					c0,0.9-0.73,1.64-1.64,1.64l0,0C480.59,393.41,479.86,392.68,479.86,391.78z M455.24,391.78c0-0.9,0.73-1.64,1.64-1.64
					c0,0,0,0,0,0l0,0c0.9,0,1.63,0.73,1.64,1.63c0,0,0,0,0,0.01l0,0c0,0.9-0.73,1.64-1.63,1.64c0,0,0,0,0,0l0,0
					C455.98,393.41,455.24,392.68,455.24,391.78z M430.63,391.78c0-0.9,0.73-1.64,1.64-1.64c0,0,0,0,0,0l0,0
					c0.9,0,1.63,0.73,1.64,1.63c0,0,0,0,0,0.01l0,0c0,0.9-0.73,1.64-1.63,1.64c0,0,0,0,0,0l0,0
					C431.37,393.41,430.63,392.68,430.63,391.78z M406.02,391.78c0-0.9,0.73-1.63,1.63-1.64c0,0,0,0,0.01,0l0,0
					c0.9,0,1.64,0.73,1.64,1.63c0,0,0,0,0,0l0,0c0,0.9-0.73,1.64-1.64,1.64l0,0C406.75,393.41,406.02,392.68,406.02,391.78
					C406.02,391.78,406.02,391.78,406.02,391.78L406.02,391.78z M381.41,391.78c0-0.9,0.73-1.63,1.63-1.64c0,0,0,0,0.01,0l0,0
					c0.9,0,1.64,0.73,1.64,1.63c0,0,0,0,0,0l0,0c0,0.9-0.73,1.64-1.64,1.64l0,0C382.14,393.42,381.41,392.69,381.41,391.78
					C381.4,391.78,381.4,391.78,381.41,391.78L381.41,391.78z M356.79,391.78c0-0.9,0.73-1.64,1.64-1.64c0,0,0,0,0,0l0,0
					c0.9,0,1.64,0.73,1.64,1.63c0,0,0,0,0,0l0,0c0,0.9-0.73,1.64-1.64,1.64l0,0C357.52,393.41,356.79,392.68,356.79,391.78z
					 M332.18,391.78c0-0.9,0.73-1.64,1.64-1.64c0,0,0,0,0,0l0,0c0.9,0,1.64,0.73,1.64,1.63c0,0,0,0,0,0l0,0
					c0,0.9-0.73,1.64-1.64,1.64l0,0C332.91,393.41,332.18,392.68,332.18,391.78z"/>
			</g>
			<g id="Group_1303">
				<path id="Path_731" class="st6" d="M579.95,393.41c-0.43,0-0.85-0.17-1.16-0.48c-0.08-0.08-0.14-0.16-0.2-0.25
					c-0.06-0.09-0.11-0.18-0.15-0.28c-0.04-0.1-0.07-0.2-0.09-0.3c-0.02-0.11-0.03-0.21-0.03-0.32c0-0.43,0.17-0.85,0.48-1.16
					c0.07-0.08,0.16-0.14,0.25-0.2c0.09-0.06,0.18-0.11,0.28-0.15c0.1-0.04,0.2-0.07,0.3-0.1c0.21-0.05,0.43-0.05,0.64,0
					c0.1,0.02,0.2,0.05,0.3,0.1c0.1,0.04,0.19,0.09,0.28,0.15c0.09,0.06,0.17,0.13,0.25,0.2c0.3,0.31,0.47,0.72,0.48,1.16
					c0,0.43-0.17,0.85-0.48,1.16C580.79,393.24,580.38,393.41,579.95,393.41z"/>
			</g>
		</g>
		<g id="Group_1308">
			<g id="Group_1305">
				<path id="Path_732" class="st6" d="M309.2,365.04c-0.11,0-0.21-0.01-0.32-0.03c-0.1-0.02-0.2-0.05-0.3-0.1
					c-0.1-0.04-0.19-0.09-0.28-0.15c-0.09-0.06-0.17-0.13-0.25-0.2c-0.08-0.08-0.15-0.16-0.21-0.25c-0.06-0.09-0.11-0.18-0.15-0.28
					c-0.04-0.1-0.07-0.2-0.09-0.3c-0.02-0.1-0.03-0.21-0.03-0.32c0-0.11,0.01-0.21,0.03-0.32c0.02-0.1,0.05-0.2,0.09-0.3
					c0.04-0.1,0.09-0.19,0.15-0.28c0.06-0.09,0.13-0.17,0.21-0.25c0.08-0.07,0.16-0.14,0.25-0.2c0.09-0.06,0.18-0.11,0.28-0.15
					c0.1-0.04,0.2-0.07,0.3-0.09c0.21-0.05,0.43-0.05,0.64,0c0.1,0.02,0.2,0.05,0.3,0.09c0.1,0.04,0.19,0.09,0.28,0.15
					c0.09,0.06,0.17,0.12,0.25,0.2c0.08,0.08,0.14,0.16,0.2,0.25c0.06,0.09,0.11,0.18,0.15,0.28c0.04,0.1,0.07,0.2,0.09,0.3
					c0.02,0.1,0.03,0.21,0.03,0.32c0,0.43-0.18,0.85-0.48,1.16c-0.08,0.08-0.16,0.14-0.25,0.2c-0.09,0.06-0.18,0.11-0.28,0.15
					c-0.1,0.04-0.2,0.08-0.3,0.1C309.42,365.04,309.31,365.05,309.2,365.04z"/>
			</g>
			<g id="Group_1306">
				<path id="Path_733" class="st6" d="M553.7,363.4c0-0.9,0.73-1.64,1.64-1.64l0,0c0.9,0,1.64,0.73,1.64,1.64l0,0
					c0,0.9-0.73,1.64-1.64,1.64l0,0C554.43,365.04,553.7,364.31,553.7,363.4z M529.08,363.4c0-0.9,0.73-1.64,1.64-1.64l0,0
					c0.9,0,1.64,0.73,1.64,1.64l0,0c0,0.9-0.73,1.64-1.64,1.64l0,0C529.82,365.04,529.08,364.31,529.08,363.4z M504.47,363.4
					c0-0.9,0.73-1.64,1.64-1.64l0,0c0.9,0,1.64,0.73,1.64,1.64l0,0c0,0.9-0.73,1.64-1.64,1.64l0,0
					C505.2,365.04,504.47,364.31,504.47,363.4z M479.86,363.4c0-0.9,0.73-1.64,1.64-1.64l0,0c0.9,0,1.64,0.73,1.64,1.64l0,0
					c0,0.9-0.73,1.64-1.64,1.64l0,0C480.59,365.04,479.86,364.31,479.86,363.4z M455.24,363.4c0-0.9,0.73-1.64,1.64-1.64l0,0
					c0.9,0,1.64,0.73,1.64,1.64c0,0,0,0,0,0l0,0c0,0.9-0.73,1.64-1.63,1.64c0,0,0,0,0,0l0,0
					C455.98,365.04,455.24,364.31,455.24,363.4z M430.63,363.4c0-0.9,0.73-1.64,1.64-1.64l0,0c0.9,0,1.64,0.73,1.64,1.64
					c0,0,0,0,0,0l0,0c0,0.9-0.73,1.64-1.63,1.64c0,0,0,0,0,0l0,0C431.37,365.04,430.63,364.31,430.63,363.4z M406.02,363.4
					c0-0.9,0.73-1.64,1.63-1.64c0,0,0,0,0,0l0,0c0.9,0,1.64,0.73,1.64,1.64l0,0c0,0.9-0.73,1.64-1.64,1.64l0,0
					C406.75,365.04,406.02,364.31,406.02,363.4C406.02,363.41,406.02,363.4,406.02,363.4L406.02,363.4z M381.41,363.4
					c0-0.9,0.73-1.64,1.63-1.64c0,0,0,0,0,0l0,0c0.9,0,1.64,0.73,1.64,1.64l0,0c0,0.9-0.73,1.64-1.64,1.64l0,0
					C382.14,365.05,381.41,364.32,381.41,363.4C381.4,363.41,381.4,363.41,381.41,363.4L381.41,363.4z M356.79,363.4
					c0-0.9,0.73-1.64,1.64-1.64l0,0c0.9,0,1.64,0.73,1.64,1.64l0,0c0,0.9-0.73,1.64-1.64,1.64l0,0
					C357.52,365.04,356.79,364.31,356.79,363.4z M332.18,363.4c0-0.9,0.73-1.64,1.64-1.64l0,0c0.9,0,1.64,0.73,1.64,1.64l0,0
					c0,0.9-0.73,1.64-1.64,1.64l0,0C332.91,365.04,332.18,364.31,332.18,363.4z"/>
			</g>
			<g id="Group_1307">
				<path id="Path_734" class="st6" d="M579.95,365.04c-0.11,0-0.21-0.01-0.32-0.03c-0.1-0.02-0.2-0.05-0.3-0.1
					c-0.1-0.04-0.19-0.09-0.28-0.15c-0.09-0.06-0.17-0.13-0.25-0.2c-0.31-0.31-0.48-0.72-0.48-1.16c0-0.11,0.01-0.21,0.03-0.32
					c0.02-0.1,0.05-0.2,0.09-0.3c0.04-0.1,0.1-0.19,0.15-0.28c0.06-0.09,0.13-0.17,0.2-0.25c0.08-0.07,0.16-0.14,0.25-0.2
					c0.09-0.06,0.18-0.11,0.28-0.15c0.1-0.04,0.2-0.07,0.3-0.09c0.54-0.11,1.09,0.06,1.48,0.44c0.07,0.08,0.14,0.16,0.2,0.25
					c0.06,0.09,0.11,0.18,0.15,0.28c0.04,0.1,0.07,0.2,0.09,0.3c0.02,0.1,0.03,0.21,0.03,0.32c0,0.43-0.17,0.85-0.48,1.16
					C580.8,364.87,580.38,365.04,579.95,365.04z"/>
			</g>
		</g>
		<g id="Group_1312">
			<g id="Group_1309">
				<path id="Path_735" class="st6" d="M309.2,336.67c-0.43,0-0.85-0.17-1.16-0.48c-0.08-0.08-0.14-0.16-0.2-0.25
					c-0.06-0.09-0.11-0.18-0.15-0.28c-0.04-0.1-0.07-0.2-0.09-0.3c-0.02-0.1-0.03-0.21-0.03-0.32c0-0.11,0.01-0.21,0.03-0.32
					c0.02-0.1,0.05-0.2,0.09-0.3c0.04-0.1,0.09-0.19,0.15-0.28c0.06-0.09,0.13-0.17,0.21-0.25c0.08-0.08,0.16-0.14,0.25-0.2
					c0.09-0.06,0.18-0.11,0.28-0.15c0.1-0.04,0.2-0.08,0.3-0.1c0.21-0.04,0.43-0.04,0.64,0c0.1,0.02,0.2,0.05,0.3,0.1
					c0.1,0.04,0.19,0.09,0.28,0.15c0.09,0.06,0.17,0.13,0.25,0.2c0.31,0.31,0.48,0.72,0.48,1.16c0,0.11-0.01,0.21-0.03,0.32
					c-0.02,0.1-0.05,0.2-0.1,0.3c-0.04,0.1-0.09,0.19-0.15,0.28c-0.06,0.09-0.13,0.17-0.2,0.25
					C310.04,336.5,309.63,336.67,309.2,336.67z"/>
			</g>
			<g id="Group_1310">
				<path id="Path_736" class="st6" d="M553.7,335.03c0-0.9,0.73-1.64,1.64-1.64l0,0c0.9,0,1.64,0.73,1.64,1.64l0,0
					c0,0.9-0.73,1.64-1.64,1.64l0,0C554.43,336.67,553.7,335.93,553.7,335.03z M529.08,335.03c0-0.9,0.73-1.64,1.64-1.64l0,0
					c0.9,0,1.64,0.73,1.64,1.64l0,0c0,0.9-0.73,1.64-1.64,1.64l0,0C529.82,336.67,529.08,335.93,529.08,335.03z M504.47,335.03
					c0-0.9,0.73-1.64,1.64-1.64l0,0c0.9,0,1.64,0.73,1.64,1.64l0,0c0,0.9-0.73,1.64-1.64,1.64l0,0
					C505.2,336.67,504.47,335.93,504.47,335.03z M479.86,335.03c0-0.9,0.73-1.64,1.64-1.64l0,0c0.9,0,1.64,0.73,1.64,1.64l0,0
					c0,0.9-0.73,1.64-1.64,1.64l0,0C480.59,336.67,479.86,335.93,479.86,335.03z M455.24,335.03c0-0.9,0.73-1.64,1.64-1.64l0,0
					c0.9,0,1.64,0.73,1.64,1.64c0,0,0,0,0,0l0,0c0,0.9-0.73,1.64-1.63,1.64c0,0,0,0,0,0l0,0
					C455.98,336.67,455.24,335.93,455.24,335.03z M430.63,335.03c0-0.9,0.73-1.64,1.64-1.64l0,0c0.9,0,1.64,0.73,1.64,1.64
					c0,0,0,0,0,0l0,0c0,0.9-0.73,1.64-1.63,1.64c0,0,0,0,0,0l0,0C431.37,336.67,430.63,335.93,430.63,335.03z M406.02,335.03
					c0-0.9,0.73-1.64,1.63-1.64c0,0,0,0,0,0l0,0c0.9,0,1.64,0.73,1.64,1.64l0,0c0,0.9-0.73,1.64-1.64,1.64l0,0
					C406.75,336.67,406.02,335.94,406.02,335.03C406.02,335.03,406.02,335.03,406.02,335.03L406.02,335.03z M381.41,335.03
					c0-0.9,0.73-1.64,1.63-1.64c0,0,0,0,0,0l0,0c0.9,0,1.64,0.73,1.64,1.64l0,0c0,0.9-0.73,1.64-1.64,1.64l0,0
					C382.14,336.67,381.41,335.94,381.41,335.03C381.4,335.04,381.4,335.03,381.41,335.03L381.41,335.03z M356.79,335.03
					c0-0.9,0.73-1.64,1.64-1.64l0,0c0.9,0,1.64,0.73,1.64,1.64l0,0c0,0.9-0.73,1.64-1.64,1.64l0,0
					C357.52,336.67,356.79,335.93,356.79,335.03z M332.18,335.03c0-0.9,0.73-1.64,1.64-1.64l0,0c0.9,0,1.64,0.73,1.64,1.64l0,0
					c0,0.9-0.73,1.64-1.64,1.64l0,0C332.91,336.67,332.18,335.93,332.18,335.03z"/>
			</g>
			<g id="Group_1311">
				<path id="Path_737" class="st6" d="M579.95,336.67c-0.43,0-0.85-0.17-1.16-0.48c-0.08-0.08-0.15-0.16-0.2-0.25
					c-0.06-0.09-0.11-0.18-0.15-0.28c-0.04-0.1-0.07-0.2-0.09-0.3c-0.02-0.1-0.03-0.21-0.03-0.32c0-0.11,0.01-0.21,0.03-0.32
					c0.02-0.1,0.05-0.2,0.09-0.3c0.04-0.1,0.09-0.19,0.15-0.28c0.06-0.09,0.13-0.17,0.2-0.25c0.08-0.08,0.16-0.15,0.25-0.2
					c0.09-0.06,0.18-0.11,0.28-0.15c0.1-0.04,0.2-0.07,0.3-0.1c0.21-0.04,0.43-0.04,0.64,0c0.1,0.02,0.2,0.05,0.3,0.1
					c0.1,0.04,0.19,0.09,0.28,0.15c0.09,0.06,0.17,0.13,0.25,0.2c0.3,0.31,0.47,0.72,0.48,1.16c0,0.11-0.01,0.21-0.03,0.32
					c-0.02,0.1-0.05,0.2-0.09,0.3c-0.04,0.1-0.09,0.19-0.15,0.28c-0.06,0.09-0.12,0.17-0.2,0.25c-0.08,0.08-0.16,0.14-0.25,0.2
					c-0.09,0.06-0.18,0.11-0.28,0.15c-0.1,0.04-0.2,0.07-0.3,0.09C580.16,336.66,580.05,336.67,579.95,336.67z"/>
			</g>
		</g>
		<g id="Group_1316">
			<g id="Group_1313">
				<path id="Path_738" class="st6" d="M309.2,308.29c-0.43,0-0.85-0.17-1.16-0.48c-0.31-0.31-0.48-0.72-0.48-1.16
					c0-0.43,0.18-0.85,0.48-1.16c0.31-0.3,0.72-0.47,1.16-0.48c0.43,0,0.85,0.17,1.16,0.48c0.31,0.31,0.48,0.73,0.48,1.16
					c0,0.43-0.17,0.85-0.48,1.16C310.05,308.12,309.64,308.29,309.2,308.29z"/>
			</g>
			<g id="Group_1314">
				<path id="Path_739" class="st6" d="M553.7,306.66c0-0.9,0.73-1.64,1.64-1.64l0,0c0.9,0,1.64,0.73,1.64,1.64l0,0
					c0,0.9-0.73,1.64-1.64,1.64c0,0,0,0,0,0l0,0C554.43,308.29,553.7,307.56,553.7,306.66C553.7,306.66,553.7,306.66,553.7,306.66z
					 M529.08,306.66c0-0.9,0.73-1.64,1.64-1.64l0,0c0.9,0,1.64,0.73,1.64,1.64l0,0c0,0.9-0.73,1.64-1.64,1.64c0,0,0,0,0,0l0,0
					C529.82,308.29,529.09,307.56,529.08,306.66C529.08,306.66,529.08,306.66,529.08,306.66z M504.47,306.66
					c0-0.9,0.73-1.64,1.64-1.64l0,0c0.9,0,1.64,0.73,1.64,1.64l0,0c0,0.9-0.73,1.64-1.64,1.64c0,0,0,0,0,0l0,0
					C505.21,308.29,504.47,307.56,504.47,306.66C504.47,306.66,504.47,306.66,504.47,306.66z M479.86,306.66
					c0-0.9,0.73-1.64,1.64-1.64l0,0c0.9,0,1.64,0.73,1.64,1.64l0,0c0,0.9-0.73,1.64-1.64,1.64c0,0,0,0,0,0l0,0
					C480.59,308.29,479.86,307.56,479.86,306.66C479.86,306.66,479.86,306.66,479.86,306.66z M455.24,306.66
					c0-0.9,0.73-1.64,1.64-1.64l0,0c0.9,0,1.64,0.73,1.64,1.64c0,0,0,0,0,0l0,0c0,0.9-0.73,1.63-1.63,1.64c0,0,0,0-0.01,0l0,0
					C455.98,308.29,455.25,307.56,455.24,306.66C455.24,306.66,455.24,306.66,455.24,306.66z M430.63,306.66
					c0-0.9,0.73-1.64,1.64-1.64l0,0c0.9,0,1.64,0.73,1.64,1.64c0,0,0,0,0,0l0,0c0,0.9-0.73,1.63-1.63,1.64c0,0,0,0-0.01,0l0,0
					C431.37,308.29,430.64,307.56,430.63,306.66C430.63,306.66,430.63,306.66,430.63,306.66z M406.02,306.66
					c0-0.9,0.73-1.64,1.63-1.64c0,0,0,0,0,0l0,0c0.9,0,1.64,0.73,1.64,1.64l0,0c0,0.9-0.73,1.64-1.64,1.64c0,0,0,0,0,0l0,0
					C406.75,308.29,406.02,307.57,406.02,306.66C406.02,306.66,406.02,306.66,406.02,306.66L406.02,306.66z M381.41,306.66
					c0-0.9,0.73-1.64,1.63-1.64c0,0,0,0,0,0l0,0c0.9,0,1.64,0.73,1.64,1.64l0,0c0,0.9-0.73,1.64-1.64,1.64c0,0,0,0,0,0l0,0
					c-0.9,0-1.64-0.72-1.64-1.62C381.4,306.67,381.4,306.66,381.41,306.66L381.41,306.66z M356.79,306.66c0-0.9,0.73-1.64,1.64-1.64
					l0,0c0.9,0,1.64,0.73,1.64,1.64l0,0c0,0.9-0.73,1.64-1.64,1.64c0,0,0,0,0,0l0,0C357.53,308.29,356.79,307.56,356.79,306.66
					C356.79,306.66,356.79,306.66,356.79,306.66z M332.18,306.66c0-0.9,0.73-1.64,1.64-1.64l0,0c0.9,0,1.64,0.73,1.64,1.64l0,0
					c0,0.9-0.73,1.64-1.64,1.64c0,0,0,0,0,0l0,0C332.91,308.29,332.18,307.56,332.18,306.66
					C332.18,306.66,332.18,306.66,332.18,306.66z"/>
			</g>
			<g id="Group_1315">
				<path id="Path_740" class="st6" d="M579.95,308.29c-0.43,0-0.85-0.17-1.16-0.48c-0.31-0.31-0.48-0.72-0.48-1.16
					c0-0.43,0.17-0.85,0.48-1.16c0.31-0.3,0.72-0.48,1.16-0.48c0.43,0,0.85,0.17,1.16,0.48c0.3,0.31,0.47,0.73,0.48,1.16
					c0,0.43-0.17,0.85-0.48,1.16c-0.08,0.08-0.16,0.14-0.25,0.2c-0.09,0.06-0.18,0.11-0.28,0.15c-0.1,0.04-0.2,0.07-0.3,0.09
					C580.17,308.29,580.06,308.3,579.95,308.29z"/>
			</g>
		</g>
		<g id="Group_1320">
			<g id="Group_1317">
				<path id="Path_741" class="st6" d="M309.2,279.92c-0.43,0-0.85-0.17-1.16-0.48c-0.08-0.08-0.14-0.16-0.2-0.25
					c-0.06-0.09-0.11-0.18-0.15-0.28c-0.04-0.1-0.07-0.2-0.09-0.3c-0.02-0.1-0.03-0.21-0.03-0.32c0-0.43,0.18-0.85,0.48-1.16
					c0.31-0.31,0.72-0.48,1.16-0.48c0.43,0,0.85,0.17,1.16,0.48c0.31,0.31,0.48,0.72,0.48,1.16c0,0.11-0.01,0.21-0.03,0.32
					c-0.02,0.1-0.05,0.2-0.1,0.3c-0.04,0.1-0.09,0.19-0.15,0.28c-0.06,0.09-0.13,0.17-0.2,0.25
					C310.05,279.75,309.64,279.92,309.2,279.92z"/>
			</g>
			<g id="Group_1318">
				<path id="Path_742" class="st6" d="M553.7,278.28c0-0.9,0.73-1.64,1.64-1.64l0,0c0.9,0,1.64,0.73,1.64,1.64l0,0
					c0,0.9-0.73,1.64-1.64,1.64l0,0C554.43,279.92,553.7,279.19,553.7,278.28z M529.08,278.28c0-0.9,0.73-1.64,1.64-1.64l0,0
					c0.9,0,1.64,0.73,1.64,1.64l0,0c0,0.9-0.73,1.64-1.64,1.64l0,0C529.82,279.92,529.08,279.19,529.08,278.28z M504.47,278.28
					c0-0.9,0.73-1.64,1.64-1.64l0,0c0.9,0,1.64,0.73,1.64,1.64l0,0c0,0.9-0.73,1.64-1.64,1.64l0,0
					C505.2,279.92,504.47,279.19,504.47,278.28z M479.86,278.28c0-0.9,0.73-1.64,1.64-1.64l0,0c0.9,0,1.64,0.73,1.64,1.64l0,0
					c0,0.9-0.73,1.64-1.64,1.64l0,0C480.59,279.92,479.86,279.19,479.86,278.28z M455.24,278.28c0-0.9,0.73-1.64,1.64-1.64l0,0
					c0.9,0,1.64,0.73,1.64,1.64c0,0,0,0,0,0l0,0c0,0.9-0.73,1.64-1.63,1.64c0,0,0,0,0,0l0,0
					C455.98,279.92,455.24,279.19,455.24,278.28z M430.63,278.28c0-0.9,0.73-1.64,1.64-1.64l0,0c0.9,0,1.64,0.73,1.64,1.64
					c0,0,0,0,0,0l0,0c0,0.9-0.73,1.64-1.63,1.64c0,0,0,0,0,0l0,0C431.37,279.92,430.63,279.19,430.63,278.28z M406.02,278.28
					c0-0.9,0.73-1.64,1.63-1.64c0,0,0,0,0,0l0,0c0.9,0,1.64,0.73,1.64,1.64l0,0c0,0.9-0.73,1.64-1.64,1.64l0,0
					C406.75,279.92,406.02,279.19,406.02,278.28C406.02,278.29,406.02,278.28,406.02,278.28L406.02,278.28z M381.41,278.28
					c0-0.9,0.73-1.64,1.63-1.64c0,0,0,0,0,0l0,0c0.9,0,1.64,0.73,1.64,1.64l0,0c0,0.9-0.73,1.64-1.64,1.64l0,0
					C382.14,279.93,381.41,279.2,381.41,278.28C381.4,278.29,381.4,278.29,381.41,278.28L381.41,278.28z M356.79,278.28
					c0-0.9,0.73-1.64,1.64-1.64l0,0c0.9,0,1.64,0.73,1.64,1.64l0,0c0,0.9-0.73,1.64-1.64,1.64l0,0
					C357.52,279.92,356.79,279.19,356.79,278.28z M332.18,278.28c0-0.9,0.73-1.64,1.64-1.64l0,0c0.9,0,1.64,0.73,1.64,1.64l0,0
					c0,0.9-0.73,1.64-1.64,1.64l0,0C332.91,279.92,332.18,279.19,332.18,278.28z"/>
			</g>
			<g id="Group_1319">
				<path id="Path_743" class="st6" d="M579.95,279.92c-0.11,0-0.21-0.01-0.32-0.03c-0.1-0.02-0.2-0.05-0.3-0.09
					c-0.1-0.04-0.19-0.09-0.28-0.15c-0.09-0.06-0.17-0.13-0.25-0.2c-0.08-0.08-0.14-0.16-0.2-0.25c-0.06-0.09-0.11-0.18-0.15-0.28
					c-0.04-0.1-0.07-0.2-0.09-0.3c-0.02-0.1-0.03-0.21-0.03-0.32c0-0.43,0.17-0.85,0.48-1.16c0.31-0.31,0.72-0.48,1.16-0.48
					c0.43,0,0.85,0.18,1.16,0.48c0.07,0.08,0.14,0.16,0.2,0.25c0.06,0.09,0.11,0.18,0.15,0.28c0.04,0.1,0.07,0.2,0.09,0.3
					c0.02,0.1,0.03,0.21,0.03,0.32c0,0.11-0.01,0.21-0.03,0.32c-0.02,0.1-0.05,0.2-0.09,0.3c-0.04,0.1-0.09,0.19-0.15,0.28
					c-0.06,0.09-0.12,0.17-0.2,0.25C580.81,279.75,580.39,279.92,579.95,279.92z"/>
			</g>
		</g>
	</g>
	<g id="Group_1322" transform="translate(-36.988 843.585) rotate(90)">
		<path id="Path_744" class="st6" d="M-401.41-453.61c-0.96,0-1.74-0.78-1.74-1.74c0-7.14,5.68-10.7,10.7-13.82
			c4.86-3.04,9.06-5.67,9.06-10.88s-4.21-7.84-9.06-10.88c-5.02-3.13-10.7-6.69-10.7-13.82c0-7.14,5.68-10.7,10.7-13.82
			c4.86-3.04,9.06-5.67,9.06-10.88c0-5.21-4.21-7.84-9.06-10.87c-5.02-3.13-10.7-6.69-10.7-13.82s5.68-10.7,10.7-13.82
			c4.86-3.04,9.06-5.67,9.06-10.88c0-5.21-4.21-7.84-9.06-10.88c-5.02-3.13-10.7-6.69-10.7-13.82c0-7.14,5.68-10.7,10.7-13.82
			c4.86-3.04,9.06-5.67,9.06-10.88s-4.21-7.84-9.06-10.88c-5.02-3.13-10.7-6.69-10.7-13.82c0-7.14,5.68-10.7,10.7-13.82
			c4.86-3.04,9.06-5.67,9.06-10.89s-4.21-7.84-9.06-10.88c-5.02-3.13-10.7-6.69-10.7-13.82c0-0.96,0.78-1.73,1.74-1.74
			c0.96,0,1.74,0.78,1.74,1.74c0,5.21,4.2,7.84,9.07,10.88c5.01,3.13,10.7,6.69,10.7,13.82s-5.68,10.7-10.7,13.82
			c-4.87,3.04-9.07,5.67-9.07,10.88c0,5.21,4.2,7.84,9.07,10.88c5.01,3.13,10.7,6.69,10.7,13.82c0,7.14-5.68,10.7-10.7,13.82
			c-4.87,3.04-9.07,5.67-9.07,10.88c0,5.21,4.2,7.84,9.07,10.88c5.01,3.13,10.7,6.69,10.7,13.82s-5.68,10.7-10.7,13.82
			c-4.87,3.04-9.07,5.67-9.07,10.88c0,5.21,4.2,7.84,9.07,10.87c5.01,3.13,10.7,6.69,10.7,13.82s-5.68,10.7-10.7,13.82
			c-4.87,3.04-9.07,5.67-9.07,10.88s4.2,7.84,9.07,10.88c5.01,3.13,10.7,6.69,10.7,13.82c0,7.14-5.68,10.7-10.7,13.82
			c-4.87,3.04-9.07,5.67-9.07,10.88c0.01,0.96-0.76,1.74-1.72,1.74C-401.4-453.61-401.41-453.61-401.41-453.61z"/>
	</g>
	<g id="Group_1323" transform="translate(-70.496 -151.317)">
		<path id="Path_745" class="st2" d="M-146.77,638.02h-23.03v-23.03h-11.93v23.03h-23v11.93h23.03v23.03h11.93v-23.03h23.03
			L-146.77,638.02z"/>
	</g>
</g>
</svg>
