<?xml version="1.0" encoding="utf-8"?>
<!-- Generator: Adobe Illustrator 25.2.0, SVG Export Plug-In . SVG Version: 6.00 Build 0)  -->
<svg version="1.1" id="Layer_1" xmlns="http://www.w3.org/2000/svg" xmlns:xlink="http://www.w3.org/1999/xlink" x="0px" y="0px"
	 viewBox="0 0 860 480" style="enable-background:new 0 0 860 480;" xml:space="preserve">
<style type="text/css">
	.st0{fill:#E6E7E8;}
	.st1{opacity:0.71;}
	.st2{fill-rule:evenodd;clip-rule:evenodd;fill:#FEC145;}
	.st3{fill-rule:evenodd;clip-rule:evenodd;fill:#F05E7E;}
	.st4{fill:#010101;}
</style>
<rect x="-5.66" y="-3.68" class="st0" width="870.41" height="489.35"/>
<g class="st1">
	<g>
		<path class="st2" d="M319.11,127.28c9.25,14.56-20.9,23-14.2,37.72h250.18c6.7-14.72-23.45-23.16-14.2-37.72
			c-7.23,1.25-22.88,4.91-27.1,18.52c0-22.2-17.55-20.14-11.04-42.33c-19.47,3.76-35.32,14.9-38.13,34.26
			c-7.23-25.9-30.71-20.61-29.3-49.02c-33.23,17.27-18.29,33.34-39.94,49.02c-2.81-19.36-18.67-30.5-38.13-34.26
			c6.51,22.2-11.04,20.13-11.04,42.33C341.99,132.19,326.33,128.53,319.11,127.28L319.11,127.28z"/>
		<path class="st3" d="M555.09,164.99H304.91h-29.76c-7.57,0-13.76,6.2-13.76,13.76V350c0,7.57,6.19,13.76,13.76,13.76h13.77v18.91
			c0,4.76,3.86,8.62,8.62,8.62c1.79,0,3.45-0.54,4.82-1.47l45.13-26.06h237.37c7.57,0,13.76-6.19,13.76-13.76V178.76
			c0-7.57-6.19-13.76-13.76-13.76H555.09z"/>
	</g>
	<g>
		<path class="st4" d="M431.89,254.1c11.34,0,20.56-9.22,20.56-20.56v-27.42c0-11.34-9.22-20.56-20.56-20.56
			c-11.34,0-20.56,9.22-20.56,20.56v27.42C411.32,244.87,420.55,254.1,431.89,254.1z M425.03,206.12c0-3.78,3.07-6.85,6.85-6.85
			c3.78,0,6.85,3.07,6.85,6.85v27.42c0,3.78-3.07,6.85-6.85,6.85c-3.78,0-6.85-3.07-6.85-6.85V206.12z"/>
		<path class="st4" d="M371.74,247.24v-20.56h13.71v20.56c0,3.79,3.07,6.85,6.85,6.85s6.85-3.07,6.85-6.85v-54.83
			c0-3.79-3.07-6.85-6.85-6.85s-6.85,3.07-6.85,6.85v20.56h-13.71v-20.56c0-3.79-3.07-6.85-6.85-6.85s-6.85,3.07-6.85,6.85v54.83
			c0,3.79,3.07,6.85,6.85,6.85S371.74,251.03,371.74,247.24z"/>
		<path class="st4" d="M474.55,247.24c0,3.79,3.07,6.85,6.85,6.85s6.85-3.07,6.85-6.85v-47.98h6.85c3.78,0,6.85-3.07,6.85-6.85
			c0-3.79-3.07-6.85-6.85-6.85H467.7c-3.78,0-6.85,3.07-6.85,6.85c0,3.79,3.07,6.85,6.85,6.85h6.85V247.24z"/>
		<path class="st4" d="M332.07,274.66h-13.71c-3.79,0-6.85,3.07-6.85,6.85v54.83c0,3.79,3.07,6.85,6.85,6.85h13.71
			c11.34,0,20.56-9.22,20.56-20.56v-27.42C352.63,283.89,343.4,274.66,332.07,274.66z M338.92,322.64c0,3.78-3.07,6.85-6.85,6.85
			h-6.85v-41.13h6.85c3.78,0,6.85,3.07,6.85,6.85V322.64z"/>
		<path class="st4" d="M434.88,274.66c-11.34,0-20.56,9.22-20.56,20.56v41.13c0,3.79,3.07,6.85,6.85,6.85s6.85-3.07,6.85-6.85
			v-13.71h13.71v13.71c0,3.79,3.07,6.85,6.85,6.85s6.85-3.07,6.85-6.85v-41.13C455.44,283.89,446.22,274.66,434.88,274.66z
			 M441.74,308.93h-13.71v-13.71c0-3.78,3.07-6.85,6.85-6.85c3.78,0,6.85,3.07,6.85,6.85V308.93z"/>
		<path class="st4" d="M393.75,288.37c3.79,0,6.85-3.07,6.85-6.85c0-3.79-3.07-6.85-6.85-6.85h-20.56c-3.79,0-6.85,3.07-6.85,6.85
			v54.83c0,3.79,3.07,6.85,6.85,6.85h20.56c3.79,0,6.85-3.07,6.85-6.85c0-3.79-3.07-6.85-6.85-6.85h-13.71v-13.71h5.14
			c3.79,0,6.85-3.07,6.85-6.85c0-3.79-3.07-6.85-6.85-6.85h-5.14v-13.71H393.75z"/>
		<path class="st4" d="M496.57,329.5h-13.71v-47.98c0-3.79-3.07-6.85-6.85-6.85s-6.85,3.07-6.85,6.85v54.83
			c0,3.79,3.07,6.85,6.85,6.85h20.56c3.78,0,6.85-3.07,6.85-6.85C503.43,332.57,500.36,329.5,496.57,329.5z"/>
		<path class="st4" d="M533.09,288.37c1.4,0,2.71,0.54,3.7,1.53c2.68,2.68,7.02,2.68,9.69,0c2.68-2.68,2.68-7.02,0-9.69
			c-3.58-3.58-8.34-5.55-13.4-5.55c-5.06,0-9.82,1.97-13.4,5.55c-3.58,3.58-5.55,8.34-5.55,13.4s1.97,9.82,5.55,13.4l13.56,13.56
			c0.99,0.99,1.53,2.3,1.53,3.7c0,1.4-0.54,2.71-1.53,3.7c-0.99,0.99-2.3,1.53-3.7,1.53c-1.4,0-2.71-0.54-3.7-1.53
			c-2.68-2.68-7.02-2.68-9.69,0c-2.68,2.68-2.68,7.02,0,9.69c3.58,3.58,8.34,5.55,13.4,5.55c5.06,0,9.82-1.97,13.4-5.55
			s5.55-8.34,5.55-13.4c0-5.06-1.97-9.82-5.55-13.4l-13.56-13.56c-0.99-0.99-1.53-2.3-1.53-3.7c0-1.4,0.54-2.71,1.53-3.7
			C530.38,288.92,531.7,288.37,533.09,288.37z"/>
		<path class="st4" d="M584.85,158.14h-22.09c-1.07-6.7-6.23-12.08-10.34-16.34c-6.66-6.93-7.21-8.54-5.75-10.84
			c1.45-2.29,1.42-5.22-0.08-7.48c-1.51-2.26-4.2-3.41-6.87-2.95c-10.35,1.8-17.56,5.15-22.57,9.09c-1.52-3.13-3.31-5.6-4.84-7.72
			c-3.7-5.12-5.56-7.69-2.98-16.5c0.67-2.29,0.1-4.77-1.51-6.54c-1.61-1.77-4.02-2.57-6.37-2.12c-17.61,3.4-30.74,11.77-37.92,23.77
			c-3.4-4.29-7.19-7.37-10.55-10.09c-7.13-5.78-11.43-9.27-10.83-21.37c0.12-2.45-1.08-4.78-3.14-6.11
			c-2.07-1.33-4.68-1.44-6.86-0.31c-21.15,10.99-25.2,22.16-28.77,32.02c-1.35,3.73-2.54,7.02-4.68,10.17
			c-6.46-14.3-20.53-24.29-40.17-28.08c-2.35-0.45-4.76,0.35-6.37,2.12c-1.61,1.77-2.18,4.25-1.51,6.54
			c2.58,8.82,0.73,11.38-2.98,16.5c-1.54,2.12-3.32,4.59-4.84,7.72c-5.01-3.94-12.21-7.29-22.57-9.09
			c-2.67-0.46-5.37,0.69-6.87,2.95c-1.51,2.26-1.54,5.19-0.08,7.48c1.47,2.31,0.92,3.92-5.75,10.84
			c-4.11,4.27-9.28,9.65-10.34,16.34h-22.08c-11.37,0-20.62,9.25-20.62,20.62V350c0,11.37,9.25,20.62,20.62,20.62h6.91v12.06
			c0,8.53,6.94,15.47,15.47,15.47c3.01,0,5.92-0.86,8.43-2.5l43.36-25.03h235.53c11.37,0,20.62-9.25,20.62-20.62V178.76
			C605.47,167.39,596.22,158.14,584.85,158.14L584.85,158.14z M591.76,350.01c0,3.81-3.1,6.91-6.91,6.91H347.48
			c-1.2,0-2.39,0.32-3.43,0.92l-45.13,26.05c-0.14,0.08-0.28,0.17-0.41,0.26c-0.29,0.2-0.62,0.3-0.98,0.3
			c-0.97,0-1.76-0.79-1.76-1.76v-18.91c0-3.79-3.07-6.85-6.85-6.85h-13.77c-3.81,0-6.91-3.1-6.91-6.91V178.76
			c0-3.81,3.1-6.91,6.91-6.91h124.01c3.79,0,6.85-3.07,6.85-6.85c0-3.79-3.07-6.85-6.85-6.85h-87.48c0.99-1.69,2.87-3.81,5.78-6.84
			c3.17-3.29,6.44-6.69,8.44-10.81c0.64-1.32,1.12-2.66,1.43-3.99c6.65,2.54,10.79,6.33,12.34,11.32c1,3.24,4.22,5.26,7.57,4.75
			c3.35-0.51,5.83-3.39,5.83-6.78c0-7.94,2.66-11.61,5.74-15.87c3.02-4.17,6.57-9.08,6.73-17.09c9.98,3.69,20.93,11.08,23.07,25.86
			c0.34,2.37,1.9,4.39,4.11,5.33c2.21,0.93,4.75,0.64,6.69-0.76c11.12-8.05,14.18-16.51,16.88-23.96
			c2.42-6.67,4.57-12.63,13.11-18.96c2.44,10.55,9.01,15.87,14.97,20.71c5.9,4.78,10.99,8.91,13.66,18.5c0.87,3.12,3.81,5.21,7.04,5
			c3.23-0.21,5.88-2.65,6.35-5.86c2.15-14.78,13.09-22.18,23.07-25.86c0.16,8.01,3.71,12.91,6.73,17.09
			c3.08,4.25,5.74,7.93,5.74,15.87c0,3.39,2.48,6.27,5.83,6.78c3.35,0.51,6.57-1.51,7.57-4.75c1.55-5,5.68-8.79,12.34-11.32
			c0.31,1.33,0.78,2.67,1.43,3.99c2,4.11,5.28,7.52,8.44,10.81c2.92,3.03,4.79,5.16,5.78,6.84h-87.49c-3.78,0-6.85,3.07-6.85,6.85
			s3.07,6.85,6.85,6.85h124.01c3.81,0,6.91,3.1,6.91,6.91V350.01z"/>
		<path class="st4" d="M430,171.85c3.79,0,6.85-3.07,6.85-6.85c0-3.79-3.07-6.85-6.85-6.85h0c-3.79,0-6.85,3.07-6.85,6.85
			C423.14,168.78,426.21,171.85,430,171.85z"/>
	</g>
</g>
</svg>
