<?xml version="1.0" encoding="utf-8"?>
<!-- Generator: Adobe Illustrator 25.2.0, SVG Export Plug-In . SVG Version: 6.00 Build 0)  -->
<svg version="1.1" id="Layer_1" xmlns="http://www.w3.org/2000/svg" xmlns:xlink="http://www.w3.org/1999/xlink" x="0px" y="0px"
	 viewBox="0 0 980 460" style="enable-background:new 0 0 980 460;" xml:space="preserve">
<style type="text/css">
	.st0{fill:#DF343A;}
	.st1{clip-path:url(#SVGID_2_);}
	.st2{fill:#36506C;}
	.st3{fill:#FCDFDF;}
	.st4{fill:#B46428;}
	.st5{opacity:0.68;}
	.st6{fill:#FFFFFF;}
</style>
<g id="Group_1300" transform="translate(723 -97)">
	<rect id="Rectangle_21" x="-723" y="97" class="st0" width="980" height="460"/>
	<g>
		<defs>
			<rect id="SVGID_1_" x="-723" y="97" width="984.51" height="460"/>
		</defs>
		<clipPath id="SVGID_2_">
			<use xlink:href="#SVGID_1_"  style="overflow:visible;"/>
		</clipPath>
		<g id="Group_1230" transform="translate(302.943 156.972)" class="st1">
			<g id="Group_1227" transform="translate(43.779 38.988)">
				<circle id="Ellipse_26" class="st2" cx="-159.9" cy="284.3" r="19.38"/>
			</g>
			<g id="Group_1229">
				<g id="Group_1228">
					<path id="Path_677" class="st3" d="M-76.74,226.26c-80.6,0-145.94,65.34-145.94,145.94l0,0c0,80.6,65.34,145.94,145.94,145.94
						l0,0c80.6,0,145.94-65.34,145.94-145.94l0,0C69.2,291.6,3.86,226.26-76.74,226.26L-76.74,226.26z M-76.74,487.42
						c-63.64,0-115.22-51.59-115.22-115.22l0,0c0-63.64,51.59-115.22,115.22-115.22c63.64,0,115.22,51.59,115.23,115.22
						C38.48,435.84-13.11,487.42-76.74,487.42L-76.74,487.42z"/>
				</g>
			</g>
		</g>
		<g id="Group_1297" transform="translate(-78.071 161.171)" class="st1">
			<g id="Group_1231" transform="translate(82.984 3.216)">
				<path id="Path_678" class="st4" d="M-688.59,261.07l-25.62,25.62c-1.3-0.24-2.61-0.45-3.92-0.64l26.09-26.09
					C-690.89,260.31-689.74,260.68-688.59,261.07z"/>
			</g>
			<g id="Group_1232" transform="translate(89.652 5.307)">
				<path id="Path_679" class="st4" d="M-683.63,263.37l-24.34,24.34c-1.18-0.36-2.36-0.7-3.55-1.01l24.66-24.66
					C-685.78,262.46-684.7,262.91-683.63,263.37z"/>
			</g>
			<g id="Group_1233" transform="translate(95.715 7.797)">
				<path id="Path_680" class="st4" d="M-678.84,266.05l-23.43,23.43c-1.07-0.46-2.15-0.9-3.24-1.32l23.66-23.66
					C-680.84,265.01-679.84,265.52-678.84,266.05z"/>
			</g>
			<g id="Group_1295">
				<g id="Group_1248" transform="translate(0.468 0.466)">
					<g id="Group_1247" transform="translate(66.59)">
						<path id="Path_689" class="st3" d="M-698.65,257.75l-30.18,30.18c-1.7,0.13-3.4,0.31-5.09,0.53l31.22-31.22
							C-701.35,257.39-700,257.56-698.65,257.75z"/>
					</g>
				</g>
				<g id="Group_1251" transform="translate(1.577 1.577)">
					<g id="Group_1250" transform="translate(73.974)">
						<path id="Path_691" class="st3" d="M-693.65,259.17l-27.45,27.45c-1.46-0.08-2.93-0.14-4.4-0.17l28.12-28.12
							C-696.14,258.6-694.89,258.87-693.65,259.17z"/>
					</g>
				</g>
				<g id="Group_1256" transform="translate(101.263 10.652)">
					<path id="Path_696" class="st3" d="M-674.24,269.08l-22.79,22.79c-0.98-0.55-1.97-1.08-2.97-1.59l22.95-22.95
						C-676.12,267.9-675.18,268.48-674.24,269.08z"/>
				</g>
				<g id="Group_1258" transform="translate(106.353 13.846)">
					<path id="Path_698" class="st3" d="M-669.85,272.43l-22.37,22.37c-0.9-0.63-1.82-1.24-2.73-1.83l22.47-22.48
						C-671.6,271.13-670.73,271.78-669.85,272.43z"/>
				</g>
				<g id="Group_1260" transform="translate(111.025 17.364)">
					<path id="Path_700" class="st3" d="M-665.68,276.1l-22.15,22.14c-0.83-0.7-1.66-1.39-2.51-2.06l22.2-22.19
						C-667.31,274.68-666.49,275.39-665.68,276.1z"/>
				</g>
				<g id="Group_1262" transform="translate(115.302 21.191)">
					<path id="Path_702" class="st3" d="M-661.73,280.06l-22.08,22.08c-0.35-0.36-0.71-0.72-1.07-1.09c-0.4-0.4-0.8-0.8-1.21-1.19
						l22.08-22.09c0.4,0.4,0.81,0.8,1.21,1.19C-662.44,279.33-662.08,279.7-661.73,280.06z"/>
				</g>
				<g id="Group_1264" transform="translate(119.19 25.32)">
					<path id="Path_704" class="st3" d="M-657.98,284.33l-22.19,22.19c-0.67-0.84-1.36-1.67-2.07-2.5l22.15-22.14
						C-659.38,282.69-658.67,283.51-657.98,284.33z"/>
				</g>
				<g id="Group_1266" transform="translate(122.688 29.756)">
					<path id="Path_706" class="st3" d="M-654.47,288.9l-22.47,22.47c-0.6-0.92-1.21-1.83-1.83-2.73l22.37-22.37
						C-655.74,287.14-655.1,288.02-654.47,288.9z"/>
				</g>
				<g id="Group_1268" transform="translate(125.773 34.511)">
					<path id="Path_708" class="st3" d="M-651.18,293.8l-22.94,22.94c-0.51-1-1.04-1.99-1.59-2.97l22.78-22.78
						C-652.33,291.92-651.75,292.86-651.18,293.8z"/>
				</g>
				<g id="Group_1270" transform="translate(128.414 39.6)">
					<path id="Path_710" class="st3" d="M-648.12,299.05l-23.64,23.64c-0.43-1.08-0.87-2.16-1.33-3.24l23.41-23.42
						C-649.14,297.03-648.63,298.04-648.12,299.05z"/>
				</g>
				<g id="Group_1272" transform="translate(130.562 45.045)">
					<path id="Path_712" class="st3" d="M-645.3,304.65l-24.64,24.65c-0.32-1.19-0.66-2.37-1.02-3.55l24.32-24.32
						C-646.18,302.5-645.73,303.57-645.3,304.65z"/>
				</g>
				<g id="Group_1274" transform="translate(132.135 50.877)">
					<path id="Path_714" class="st3" d="M-642.7,310.67l-26.05,26.05c-0.19-1.31-0.41-2.61-0.65-3.91l25.6-25.6
						C-643.42,308.36-643.05,309.51-642.7,310.67z"/>
				</g>
				<g id="Group_1277" transform="translate(57.144 57.144)">
					<g id="Group_1276" transform="translate(75.859)">
						<path id="Path_716" class="st3" d="M-640.29,317.15l-28.08,28.08c-0.03-1.46-0.09-2.92-0.18-4.38l27.42-27.42
							C-640.82,314.67-640.54,315.91-640.29,317.15z"/>
					</g>
				</g>
				<g id="Group_1280" transform="translate(63.912 63.912)">
					<g id="Group_1279" transform="translate(68.753)">
						<path id="Path_718" class="st3" d="M-637.72,324.18l-31.15,31.15c0.21-1.69,0.38-3.39,0.51-5.08l30.12-30.12
							C-638.05,321.48-637.87,322.83-637.72,324.18z"/>
					</g>
				</g>
				<g id="Group_1294">
					<g id="Group_1293">
						<path id="Path_726" class="st3" d="M-504.11,403.18c-0.02-1.48-0.06-2.97-0.12-4.44c-0.14-3.55-0.42-7.1-0.82-10.64
							c-0.15-1.35-0.32-2.7-0.52-4.05c-0.46-3.26-1.03-6.52-1.71-9.76c-0.27-1.25-0.54-2.49-0.84-3.73
							c-0.71-3.03-1.53-6.04-2.44-9.02c-0.35-1.15-0.72-2.31-1.1-3.46c-0.94-2.82-1.96-5.62-3.07-8.39
							c-0.43-1.08-0.88-2.15-1.34-3.22c-1.13-2.64-2.34-5.25-3.63-7.83c-0.5-1.01-1.01-2.01-1.55-3.01
							c-1.3-2.47-2.68-4.91-4.14-7.32c-0.57-0.95-1.15-1.89-1.75-2.82c-1.47-2.31-3.01-4.59-4.62-6.84
							c-0.63-0.88-1.28-1.76-1.93-2.63c-1.62-2.16-3.32-4.29-5.08-6.37c-0.69-0.82-1.4-1.64-2.11-2.45c-1.78-2.02-3.62-4-5.52-5.94
							c-0.35-0.36-0.71-0.73-1.07-1.09c-0.4-0.4-0.8-0.8-1.21-1.19c-1.94-1.9-3.93-3.74-5.95-5.51c-0.81-0.71-1.63-1.42-2.46-2.11
							c-2.09-1.76-4.22-3.45-6.39-5.07c-0.87-0.66-1.75-1.31-2.63-1.93c-2.25-1.61-4.53-3.15-6.85-4.61
							c-0.93-0.6-1.87-1.18-2.82-1.74c-2.41-1.46-4.85-2.84-7.32-4.14c-1-0.53-2.01-1.05-3.01-1.55c-2.58-1.29-5.2-2.5-7.84-3.63
							c-1.07-0.46-2.15-0.9-3.23-1.33c-2.77-1.11-5.57-2.13-8.4-3.06c-1.15-0.39-2.31-0.75-3.46-1.1c-2.99-0.91-6-1.72-9.03-2.43
							c-1.24-0.3-2.49-0.57-3.73-0.83c-3.24-0.68-6.49-1.24-9.76-1.7c-1.35-0.19-2.7-0.36-4.05-0.51c-3.54-0.4-7.09-0.67-10.65-0.81
							c-1.48-0.06-2.97-0.1-4.45-0.11c-3.94-0.04-7.88,0.08-11.81,0.35c-1.67,0.11-3.33,0.26-5,0.43
							c-4.51,0.47-9.01,1.14-13.48,2.02c-1.95,0.38-3.9,0.81-5.84,1.27c-5.56,1.33-11.04,2.98-16.41,4.95
							c-2.55,0.93-5.07,1.93-7.58,3.01c-9.04,3.89-17.67,8.68-25.76,14.3c-7.29,5.06-14.11,10.77-20.38,17.04
							c-6.28,6.27-11.98,13.09-17.04,20.38c-5.62,8.09-10.41,16.72-14.3,25.76c-1.08,2.5-2.08,5.03-3.01,7.58
							c-1.97,5.37-3.62,10.85-4.95,16.41c-0.47,1.94-0.89,3.89-1.27,5.84l0,0c-0.88,4.46-1.55,8.96-2.02,13.48
							c-0.18,1.66-0.32,3.33-0.43,5c-0.27,3.93-0.38,7.87-0.35,11.81c0.02,1.48,0.05,2.97,0.11,4.45c0.14,3.56,0.41,7.11,0.81,10.65
							c0.15,1.35,0.32,2.7,0.51,4.05c0.46,3.27,1.02,6.52,1.7,9.76c0.26,1.25,0.54,2.49,0.83,3.73c0.71,3.03,1.52,6.04,2.43,9.03
							c0.35,1.16,0.72,2.31,1.1,3.46c0.93,2.82,1.95,5.62,3.06,8.4c0.43,1.08,0.88,2.16,1.33,3.23c1.13,2.64,2.34,5.25,3.63,7.84
							c0.5,1.01,1.02,2.01,1.55,3.01c1.3,2.47,2.68,4.91,4.14,7.32c0.57,0.95,1.15,1.89,1.74,2.82c1.46,2.31,3,4.6,4.61,6.85
							c0.63,0.88,1.27,1.76,1.93,2.63c1.62,2.17,3.31,4.3,5.07,6.39c0.69,0.82,1.39,1.64,2.11,2.46c1.77,2.02,3.61,4.01,5.51,5.95
							c0.4,0.4,0.8,0.81,1.19,1.21c0.36,0.36,0.72,0.72,1.09,1.07c1.94,1.91,3.92,3.75,5.94,5.52c0.81,0.71,1.63,1.42,2.45,2.11
							c2.09,1.76,4.21,3.45,6.37,5.08c0.87,0.66,1.75,1.31,2.63,1.93c2.24,1.61,4.52,3.15,6.84,4.62c0.93,0.59,1.87,1.18,2.82,1.75
							c2.41,1.46,4.84,2.84,7.31,4.14c1,0.53,2.01,1.05,3.01,1.55c2.58,1.29,5.19,2.51,7.83,3.63c1.07,0.46,2.14,0.91,3.22,1.34
							c2.77,1.11,5.57,2.14,8.39,3.07c1.15,0.38,2.3,0.75,3.46,1.1c2.98,0.91,5.99,1.72,9.02,2.44c1.24,0.3,2.48,0.58,3.73,0.84
							c3.23,0.68,6.49,1.25,9.76,1.71c1.35,0.19,2.7,0.37,4.05,0.52c3.54,0.41,7.08,0.68,10.64,0.82c1.48,0.06,2.97,0.1,4.44,0.12
							c3.93,0.05,7.87-0.06,11.79-0.33c1.66-0.11,3.32-0.25,4.98-0.42c4.5-0.45,8.99-1.12,13.45-1.99c1.94-0.38,3.89-0.8,5.82-1.26
							c5.54-1.31,10.99-2.94,16.34-4.88c2.53-0.92,5.05-1.91,7.54-2.97c8.91-3.8,17.41-8.47,25.4-13.94
							c7.58-5.19,14.67-11.07,21.17-17.57c6.51-6.5,12.4-13.59,17.6-21.17c5.47-7.99,10.14-16.49,13.94-25.4
							c1.06-2.49,2.05-5,2.97-7.54c1.94-5.35,3.57-10.8,4.88-16.34c0.46-1.93,0.88-3.88,1.26-5.83c0.87-4.46,1.53-8.94,1.99-13.45
							c0.17-1.66,0.31-3.32,0.42-4.98C-504.17,411.05-504.07,407.11-504.11,403.18z M-555.49,470.57
							c-4.15,6.11-8.87,11.81-14.1,17.03c-5.22,5.22-10.92,9.94-17.02,14.1c-3.66,2.49-7.46,4.77-11.39,6.82
							c-6.25,3.28-12.79,5.98-19.53,8.07c-2.09,0.65-4.21,1.24-6.33,1.77c-4.63,1.16-9.33,2.03-14.07,2.61
							c-1.69,0.21-3.39,0.38-5.08,0.51c-3.93,0.31-7.86,0.42-11.8,0.33c-1.46-0.03-2.92-0.09-4.38-0.18
							c-3.47-0.2-6.93-0.56-10.38-1.08c-1.31-0.19-2.61-0.41-3.91-0.65c-3.14-0.58-6.25-1.28-9.35-2.12
							c-1.19-0.32-2.37-0.66-3.54-1.02c-2.87-0.87-5.71-1.85-8.51-2.95c-1.08-0.43-2.16-0.87-3.24-1.33
							c-2.63-1.12-5.23-2.35-7.79-3.67c-1-0.51-1.99-1.04-2.97-1.59c-2.42-1.34-4.81-2.78-7.15-4.31c-0.92-0.6-1.83-1.21-2.73-1.83
							c-2.23-1.55-4.42-3.18-6.57-4.9c-0.84-0.67-1.67-1.36-2.5-2.07c-2.05-1.74-4.05-3.56-6-5.46c-0.36-0.35-0.72-0.71-1.09-1.07
							c-0.4-0.4-0.8-0.8-1.19-1.21c-1.9-1.95-3.72-3.96-5.45-6.01c-0.7-0.82-1.39-1.66-2.06-2.5c-1.72-2.14-3.35-4.33-4.89-6.57
							c-0.63-0.9-1.24-1.81-1.83-2.73c-1.53-2.34-2.96-4.73-4.3-7.17c-0.55-0.98-1.08-1.98-1.59-2.97
							c-1.32-2.56-2.54-5.17-3.66-7.81c-0.46-1.07-0.9-2.15-1.32-3.24c-1.09-2.81-2.07-5.65-2.94-8.52
							c-0.36-1.18-0.7-2.36-1.01-3.55c-0.83-3.09-1.53-6.21-2.1-9.36c-0.24-1.31-0.45-2.61-0.64-3.92
							c-0.51-3.45-0.86-6.92-1.06-10.4c-0.08-1.46-0.14-2.93-0.17-4.4c-0.08-3.94,0.04-7.89,0.36-11.82
							c0.13-1.7,0.31-3.39,0.53-5.09c0.59-4.76,1.48-9.47,2.65-14.12c0.54-2.13,1.14-4.25,1.79-6.36c2.13-6.8,4.88-13.39,8.23-19.69
							c2.13-4.02,4.5-7.92,7.1-11.66c4.02-5.81,8.56-11.24,13.55-16.23c4.99-5,10.42-9.53,16.23-13.55
							c3.74-2.59,7.64-4.96,11.66-7.1c6.3-3.34,12.89-6.1,19.69-8.23c2.11-0.66,4.23-1.26,6.37-1.79c4.65-1.17,9.36-2.06,14.11-2.65
							c1.7-0.21,3.39-0.39,5.09-0.53c3.93-0.32,7.88-0.44,11.82-0.36c1.46,0.02,2.93,0.08,4.4,0.17c3.48,0.2,6.95,0.55,10.4,1.06
							c1.31,0.19,2.62,0.4,3.92,0.64c3.14,0.57,6.26,1.28,9.36,2.1c1.19,0.31,2.37,0.66,3.55,1.01c2.87,0.86,5.71,1.84,8.52,2.94
							c1.09,0.42,2.17,0.86,3.24,1.32c2.64,1.12,5.24,2.34,7.81,3.66c1,0.51,1.99,1.04,2.97,1.59c2.43,1.33,4.82,2.77,7.17,4.3
							c0.92,0.59,1.83,1.2,2.74,1.83c2.23,1.54,4.42,3.17,6.57,4.89c0.84,0.67,1.68,1.36,2.51,2.06c2.05,1.74,4.05,3.56,6.01,5.45
							c0.4,0.4,0.81,0.8,1.21,1.19c0.36,0.36,0.72,0.72,1.07,1.09c1.9,1.95,3.72,3.95,5.46,6c0.71,0.83,1.39,1.66,2.07,2.5
							c1.73,2.14,3.36,4.33,4.9,6.57c0.63,0.9,1.24,1.81,1.83,2.73c1.53,2.34,2.97,4.73,4.31,7.15c0.55,0.98,1.08,1.97,1.59,2.97
							c1.33,2.56,2.55,5.16,3.67,7.79c0.46,1.07,0.9,2.15,1.33,3.24c1.09,2.81,2.08,5.64,2.95,8.51c0.36,1.18,0.7,2.36,1.02,3.55
							c0.84,3.09,1.54,6.21,2.11,9.35c0.24,1.3,0.46,2.6,0.65,3.91c0.51,3.45,0.87,6.91,1.08,10.38c0.09,1.46,0.15,2.92,0.18,4.38
							c0.08,3.93-0.03,7.86-0.33,11.8c-0.13,1.69-0.3,3.39-0.51,5.08c-0.58,4.74-1.45,9.44-2.61,14.07
							c-0.53,2.12-1.12,4.23-1.77,6.33c-2.09,6.74-4.79,13.28-8.07,19.53C-550.72,463.11-552.99,466.91-555.49,470.57
							L-555.49,470.57z"/>
					</g>
				</g>
			</g>
			<g id="Group_1296" transform="translate(40.319 40.319)">
				<path id="Path_727" class="st2" d="M-624.71,364.6c0,3.59-0.28,7.17-0.84,10.71c-0.3,1.94-0.69,3.84-1.16,5.72
					c-1.78,7.15-4.72,13.96-8.7,20.17c-5.29,8.25-12.3,15.26-20.55,20.55c-6.2,3.98-13.01,6.92-20.17,8.7
					c-1.88,0.47-3.78,0.85-5.72,1.16c-3.54,0.56-7.12,0.84-10.71,0.84c-0.53,0-1.05,0-1.58-0.02c-1.46-0.03-2.9-0.11-4.33-0.23
					c-3.33-0.29-6.63-0.82-9.88-1.59c-1.21-0.29-2.41-0.61-3.6-0.96c-2.85-0.85-5.65-1.88-8.36-3.1c-1.04-0.47-2.07-0.96-3.09-1.48
					c-2.49-1.27-4.89-2.69-7.2-4.26c-0.91-0.61-1.79-1.24-2.66-1.9c-2.17-1.63-4.24-3.39-6.2-5.26c-0.78-0.74-1.54-1.5-2.28-2.28
					c-1.87-1.97-3.62-4.04-5.25-6.21c-0.65-0.88-1.28-1.77-1.89-2.67c-1.56-2.32-2.98-4.73-4.24-7.22
					c-0.52-1.02-1.01-2.05-1.47-3.09c-1.21-2.72-2.24-5.52-3.08-8.38c-0.35-1.19-0.67-2.4-0.96-3.61c-0.77-3.26-1.29-6.57-1.56-9.9
					c-0.12-1.43-0.2-2.88-0.22-4.34c0-0.45-0.01-0.89-0.01-1.34c0-3.69,0.29-7.36,0.89-11c0.32-1.95,0.72-3.87,1.19-5.76
					c1.86-7.3,4.92-14.24,9.07-20.53c5.09-7.72,11.7-14.32,19.42-19.41c6.29-4.15,13.23-7.21,20.53-9.07
					c1.89-0.48,3.81-0.88,5.76-1.19c3.64-0.59,7.32-0.89,11-0.89c0.45,0,0.89,0,1.34,0.01c1.46,0.03,2.91,0.1,4.34,0.22
					c3.33,0.27,6.64,0.8,9.9,1.56c1.22,0.28,2.42,0.6,3.61,0.96c2.86,0.84,5.66,1.87,8.38,3.08c1.05,0.46,2.08,0.95,3.09,1.47
					c2.49,1.26,4.91,2.68,7.22,4.24c0.9,0.61,1.79,1.24,2.67,1.89c2.17,1.63,4.25,3.38,6.21,5.25c0.78,0.74,1.54,1.5,2.28,2.28
					c1.88,1.96,3.63,4.03,5.26,6.2c0.65,0.87,1.29,1.76,1.9,2.66c1.57,2.31,2.99,4.72,4.26,7.21c0.52,1.01,1.01,2.04,1.48,3.09
					c1.22,2.72,2.26,5.51,3.1,8.36c0.36,1.19,0.68,2.39,0.96,3.6c0.77,3.25,1.31,6.55,1.59,9.87c0.13,1.43,0.21,2.87,0.24,4.33
					C-624.72,363.55-624.71,364.07-624.71,364.6z"/>
			</g>
		</g>
		<g id="Group_1298" transform="translate(340.153 81.386)" class="st1">
			<path id="Path_728" class="st2" d="M-154.33,76.36l71.17,41.09V35.27L-154.33,76.36z"/>
		</g>
	</g>
	<g id="Group_1321" transform="translate(81.165 -3.747)" class="st5">
		<g id="Group_1304">
			<g id="Group_1301">
				<path id="Path_729" class="st6" d="M-188.84,310.02c-0.29,0-0.56-0.11-0.77-0.32c-0.2-0.2-0.32-0.48-0.32-0.77
					c0-0.29,0.12-0.56,0.32-0.77c0.05-0.05,0.11-0.1,0.17-0.13c0.06-0.04,0.12-0.07,0.19-0.1c0.06-0.03,0.13-0.05,0.2-0.06
					c0.14-0.03,0.28-0.03,0.42,0c0.07,0.01,0.14,0.04,0.2,0.06c0.07,0.03,0.13,0.06,0.19,0.1c0.06,0.04,0.12,0.08,0.17,0.13
					c0.2,0.2,0.32,0.48,0.32,0.77c0,0.07-0.01,0.14-0.02,0.21c-0.01,0.07-0.04,0.14-0.06,0.2c-0.03,0.07-0.06,0.13-0.1,0.19
					c-0.04,0.06-0.08,0.11-0.14,0.17C-188.29,309.9-188.56,310.01-188.84,310.02z"/>
			</g>
			<g id="Group_1302">
				<path id="Path_730" class="st6" d="M-26.87,308.93c0-0.6,0.48-1.08,1.08-1.08c0,0,0,0,0,0l0,0c0.6,0,1.08,0.48,1.09,1.08
					c0,0,0,0,0,0l0,0c0,0.6-0.49,1.09-1.09,1.09l0,0C-26.38,310.02-26.87,309.53-26.87,308.93z M-43.17,308.93
					c0-0.6,0.48-1.08,1.08-1.08c0,0,0,0,0,0l0,0c0.6,0,1.08,0.48,1.09,1.08c0,0,0,0,0,0l0,0c0,0.6-0.49,1.09-1.09,1.09l0,0
					C-42.68,310.02-43.17,309.53-43.17,308.93z M-59.48,308.93c0-0.6,0.48-1.08,1.08-1.08c0,0,0,0,0,0l0,0
					c0.6,0,1.08,0.48,1.09,1.08c0,0,0,0,0,0l0,0c0,0.6-0.49,1.09-1.09,1.09l0,0C-58.99,310.02-59.48,309.53-59.48,308.93z
					 M-75.78,308.93c0-0.6,0.48-1.08,1.08-1.08c0,0,0,0,0,0l0,0c0.6,0,1.08,0.48,1.09,1.08c0,0,0,0,0,0l0,0
					c0,0.6-0.49,1.09-1.09,1.09l0,0C-75.3,310.02-75.78,309.53-75.78,308.93z M-92.09,308.93c0-0.6,0.48-1.08,1.08-1.08c0,0,0,0,0,0
					l0,0c0.6,0,1.08,0.48,1.08,1.08c0,0,0,0,0,0l0,0c0,0.6-0.48,1.08-1.08,1.09c0,0,0,0,0,0l0,0
					C-91.6,310.02-92.09,309.53-92.09,308.93z M-108.4,308.93c0-0.6,0.48-1.08,1.08-1.08c0,0,0,0,0,0l0,0c0.6,0,1.08,0.48,1.08,1.08
					c0,0,0,0,0,0l0,0c0,0.6-0.48,1.08-1.08,1.09c0,0,0,0,0,0l0,0C-107.91,310.02-108.4,309.53-108.4,308.93z M-124.7,308.93
					c0-0.6,0.48-1.08,1.08-1.08c0,0,0,0,0,0l0,0c0.6,0,1.08,0.48,1.09,1.08c0,0,0,0,0,0l0,0c0,0.6-0.49,1.09-1.09,1.09l0,0
					C-124.22,310.02-124.7,309.53-124.7,308.93C-124.7,308.93-124.7,308.93-124.7,308.93L-124.7,308.93z M-141.01,308.93
					c0-0.6,0.48-1.08,1.08-1.08c0,0,0,0,0,0l0,0c0.6,0,1.08,0.48,1.09,1.08c0,0,0,0,0,0l0,0c0,0.6-0.49,1.09-1.09,1.09l0,0
					C-140.52,310.02-141.01,309.54-141.01,308.93C-141.01,308.94-141.01,308.93-141.01,308.93L-141.01,308.93z M-157.32,308.93
					c0-0.6,0.48-1.08,1.08-1.08c0,0,0,0,0,0l0,0c0.6,0,1.08,0.48,1.09,1.08c0,0,0,0,0,0l0,0c0,0.6-0.49,1.09-1.09,1.09l0,0
					C-156.83,310.02-157.32,309.53-157.32,308.93z M-173.62,308.93c0-0.6,0.48-1.08,1.08-1.08c0,0,0,0,0,0l0,0
					c0.6,0,1.08,0.48,1.09,1.08c0,0,0,0,0,0l0,0c0,0.6-0.49,1.09-1.09,1.09l0,0C-173.14,310.02-173.62,309.53-173.62,308.93z"/>
			</g>
			<g id="Group_1303">
				<path id="Path_731" class="st6" d="M-9.47,310.02c-0.29,0-0.56-0.11-0.77-0.32c-0.05-0.05-0.1-0.11-0.14-0.17
					c-0.04-0.06-0.07-0.12-0.1-0.19c-0.03-0.06-0.05-0.13-0.06-0.2c-0.02-0.07-0.02-0.14-0.02-0.21c0-0.29,0.12-0.56,0.32-0.77
					c0.05-0.05,0.11-0.1,0.17-0.13c0.06-0.04,0.12-0.07,0.19-0.1c0.06-0.03,0.13-0.05,0.2-0.06c0.14-0.03,0.28-0.03,0.42,0
					c0.07,0.01,0.14,0.04,0.2,0.06c0.07,0.03,0.13,0.06,0.19,0.1c0.06,0.04,0.11,0.08,0.17,0.13c0.2,0.2,0.31,0.48,0.32,0.77
					c0,0.29-0.11,0.56-0.32,0.77C-8.92,309.9-9.19,310.02-9.47,310.02z"/>
			</g>
		</g>
		<g id="Group_1308">
			<g id="Group_1305">
				<path id="Path_732" class="st6" d="M-188.84,291.22c-0.07,0-0.14-0.01-0.21-0.02c-0.07-0.01-0.14-0.04-0.2-0.06
					c-0.07-0.03-0.13-0.06-0.19-0.1c-0.06-0.04-0.11-0.08-0.17-0.14c-0.05-0.05-0.1-0.11-0.14-0.17c-0.04-0.06-0.07-0.12-0.1-0.19
					c-0.03-0.06-0.05-0.13-0.06-0.2c-0.01-0.07-0.02-0.14-0.02-0.21c0-0.07,0.01-0.14,0.02-0.21c0.01-0.07,0.04-0.13,0.06-0.2
					c0.03-0.06,0.06-0.13,0.1-0.19c0.04-0.06,0.09-0.11,0.14-0.17c0.05-0.05,0.11-0.09,0.17-0.13c0.06-0.04,0.12-0.07,0.19-0.1
					c0.06-0.03,0.13-0.05,0.2-0.06c0.14-0.03,0.28-0.03,0.42,0c0.07,0.01,0.13,0.03,0.2,0.06c0.07,0.03,0.13,0.06,0.19,0.1
					c0.06,0.04,0.12,0.08,0.17,0.13c0.05,0.05,0.1,0.11,0.14,0.17c0.04,0.06,0.07,0.12,0.1,0.19c0.03,0.06,0.05,0.13,0.06,0.2
					c0.02,0.07,0.02,0.14,0.02,0.21c0,0.29-0.12,0.56-0.32,0.77c-0.05,0.05-0.11,0.1-0.17,0.14c-0.06,0.04-0.12,0.07-0.19,0.1
					c-0.06,0.03-0.13,0.05-0.2,0.06C-188.7,291.22-188.77,291.22-188.84,291.22z"/>
			</g>
			<g id="Group_1306">
				<path id="Path_733" class="st6" d="M-26.87,290.14c0-0.6,0.49-1.09,1.09-1.09l0,0c0.6,0,1.09,0.49,1.09,1.09l0,0
					c0,0.6-0.49,1.09-1.09,1.09l0,0C-26.38,291.22-26.87,290.73-26.87,290.14z M-43.17,290.14c0-0.6,0.49-1.09,1.09-1.09l0,0
					c0.6,0,1.09,0.49,1.09,1.09l0,0c0,0.6-0.49,1.09-1.09,1.09l0,0C-42.68,291.22-43.17,290.73-43.17,290.14z M-59.48,290.14
					c0-0.6,0.49-1.09,1.09-1.09l0,0c0.6,0,1.09,0.49,1.09,1.09l0,0c0,0.6-0.49,1.09-1.09,1.09l0,0
					C-58.99,291.22-59.48,290.73-59.48,290.14z M-75.78,290.14c0-0.6,0.49-1.09,1.09-1.09l0,0c0.6,0,1.09,0.49,1.09,1.09l0,0
					c0,0.6-0.49,1.09-1.09,1.09l0,0C-75.3,291.22-75.78,290.73-75.78,290.14z M-92.09,290.14c0-0.6,0.49-1.09,1.09-1.09l0,0
					c0.6,0,1.08,0.48,1.08,1.08c0,0,0,0,0,0l0,0c0,0.6-0.48,1.08-1.08,1.09c0,0,0,0,0,0l0,0C-91.6,291.22-92.09,290.73-92.09,290.14
					z M-108.4,290.14c0-0.6,0.49-1.09,1.09-1.09l0,0c0.6,0,1.08,0.48,1.08,1.08c0,0,0,0,0,0l0,0c0,0.6-0.48,1.08-1.08,1.09
					c0,0,0,0,0,0l0,0C-107.91,291.22-108.4,290.73-108.4,290.14z M-124.7,290.14c0-0.6,0.48-1.08,1.08-1.09c0,0,0,0,0,0l0,0
					c0.6,0,1.09,0.49,1.09,1.09l0,0c0,0.6-0.49,1.09-1.09,1.09l0,0C-124.22,291.22-124.7,290.74-124.7,290.14
					C-124.7,290.14-124.7,290.14-124.7,290.14L-124.7,290.14z M-141.01,290.14c0-0.6,0.48-1.08,1.08-1.09c0,0,0,0,0,0l0,0
					c0.6,0,1.09,0.49,1.09,1.09l0,0c0,0.6-0.49,1.09-1.09,1.09l0,0C-140.52,291.22-141.01,290.74-141.01,290.14
					C-141.01,290.14-141.01,290.14-141.01,290.14L-141.01,290.14z M-157.32,290.14c0-0.6,0.49-1.09,1.09-1.09l0,0
					c0.6,0,1.09,0.49,1.09,1.09l0,0c0,0.6-0.49,1.09-1.09,1.09l0,0C-156.83,291.22-157.32,290.73-157.32,290.14z M-173.62,290.14
					c0-0.6,0.49-1.09,1.09-1.09l0,0c0.6,0,1.09,0.49,1.09,1.09l0,0c0,0.6-0.49,1.09-1.09,1.09l0,0
					C-173.14,291.22-173.62,290.73-173.62,290.14z"/>
			</g>
			<g id="Group_1307">
				<path id="Path_734" class="st6" d="M-9.47,291.22c-0.07,0-0.14-0.01-0.21-0.02c-0.07-0.01-0.14-0.04-0.2-0.06
					c-0.07-0.03-0.13-0.06-0.19-0.1c-0.06-0.04-0.12-0.08-0.17-0.14c-0.2-0.2-0.32-0.48-0.32-0.77c0-0.07,0.01-0.14,0.02-0.21
					c0.01-0.07,0.03-0.13,0.06-0.2c0.03-0.06,0.06-0.13,0.1-0.19c0.04-0.06,0.08-0.11,0.14-0.17c0.05-0.05,0.11-0.09,0.17-0.13
					c0.06-0.04,0.12-0.08,0.19-0.1c0.06-0.03,0.13-0.05,0.2-0.06c0.36-0.07,0.72,0.04,0.98,0.29c0.05,0.05,0.09,0.11,0.13,0.17
					c0.04,0.06,0.07,0.12,0.1,0.19c0.03,0.06,0.05,0.13,0.06,0.2c0.01,0.07,0.02,0.14,0.02,0.21c0,0.29-0.12,0.56-0.32,0.77
					C-8.91,291.1-9.19,291.22-9.47,291.22z"/>
			</g>
		</g>
		<g id="Group_1312">
			<g id="Group_1309">
				<path id="Path_735" class="st6" d="M-188.84,272.42c-0.29,0-0.56-0.11-0.77-0.32c-0.05-0.05-0.1-0.11-0.13-0.17
					c-0.04-0.06-0.07-0.12-0.1-0.19c-0.03-0.06-0.05-0.13-0.06-0.2c-0.01-0.07-0.02-0.14-0.02-0.21c0-0.07,0.01-0.14,0.02-0.21
					c0.01-0.07,0.04-0.13,0.06-0.2c0.03-0.07,0.06-0.13,0.1-0.19c0.04-0.06,0.09-0.11,0.14-0.17c0.05-0.05,0.11-0.1,0.17-0.14
					c0.06-0.04,0.12-0.07,0.19-0.1c0.06-0.03,0.13-0.05,0.2-0.06c0.14-0.03,0.28-0.03,0.42,0c0.07,0.01,0.14,0.04,0.2,0.06
					c0.07,0.03,0.13,0.06,0.19,0.1c0.06,0.04,0.12,0.08,0.17,0.14c0.2,0.2,0.32,0.48,0.32,0.77c0,0.07-0.01,0.14-0.02,0.21
					c-0.01,0.07-0.03,0.14-0.06,0.2c-0.03,0.07-0.06,0.13-0.1,0.19c-0.04,0.06-0.08,0.11-0.14,0.17
					C-188.29,272.31-188.56,272.42-188.84,272.42z"/>
			</g>
			<g id="Group_1310">
				<path id="Path_736" class="st6" d="M-26.87,271.34c0-0.6,0.49-1.09,1.09-1.09l0,0c0.6,0,1.09,0.49,1.09,1.09l0,0
					c0,0.6-0.49,1.09-1.09,1.09l0,0C-26.38,272.42-26.87,271.94-26.87,271.34z M-43.17,271.34c0-0.6,0.49-1.09,1.09-1.09l0,0
					c0.6,0,1.09,0.49,1.09,1.09l0,0c0,0.6-0.49,1.09-1.09,1.09l0,0C-42.68,272.42-43.17,271.94-43.17,271.34z M-59.48,271.34
					c0-0.6,0.49-1.09,1.09-1.09l0,0c0.6,0,1.09,0.49,1.09,1.09l0,0c0,0.6-0.49,1.09-1.09,1.09l0,0
					C-58.99,272.42-59.48,271.94-59.48,271.34z M-75.78,271.34c0-0.6,0.49-1.09,1.09-1.09l0,0c0.6,0,1.09,0.49,1.09,1.09l0,0
					c0,0.6-0.49,1.09-1.09,1.09l0,0C-75.3,272.42-75.78,271.94-75.78,271.34z M-92.09,271.34c0-0.6,0.49-1.09,1.09-1.09l0,0
					c0.6,0,1.08,0.48,1.08,1.08c0,0,0,0,0,0l0,0c0,0.6-0.48,1.08-1.08,1.09c0,0,0,0,0,0l0,0C-91.6,272.42-92.09,271.94-92.09,271.34
					z M-108.4,271.34c0-0.6,0.49-1.09,1.09-1.09l0,0c0.6,0,1.08,0.48,1.08,1.08c0,0,0,0,0,0l0,0c0,0.6-0.48,1.08-1.08,1.09
					c0,0,0,0,0,0l0,0C-107.91,272.42-108.4,271.94-108.4,271.34z M-124.7,271.34c0-0.6,0.48-1.08,1.08-1.09c0,0,0,0,0,0l0,0
					c0.6,0,1.09,0.49,1.09,1.09l0,0c0,0.6-0.49,1.09-1.09,1.09l0,0C-124.22,272.42-124.7,271.94-124.7,271.34
					C-124.7,271.34-124.7,271.34-124.7,271.34L-124.7,271.34z M-141.01,271.34c0-0.6,0.48-1.08,1.08-1.09c0,0,0,0,0,0l0,0
					c0.6,0,1.09,0.49,1.09,1.09l0,0c0,0.6-0.49,1.09-1.09,1.09l0,0C-140.52,272.42-141.01,271.94-141.01,271.34
					C-141.01,271.34-141.01,271.34-141.01,271.34L-141.01,271.34z M-157.32,271.34c0-0.6,0.49-1.09,1.09-1.09l0,0
					c0.6,0,1.09,0.49,1.09,1.09l0,0c0,0.6-0.49,1.09-1.09,1.09l0,0C-156.83,272.42-157.32,271.94-157.32,271.34z M-173.62,271.34
					c0-0.6,0.49-1.09,1.09-1.09l0,0c0.6,0,1.09,0.49,1.09,1.09l0,0c0,0.6-0.49,1.09-1.09,1.09l0,0
					C-173.14,272.42-173.62,271.94-173.62,271.34z"/>
			</g>
			<g id="Group_1311">
				<path id="Path_737" class="st6" d="M-9.47,272.42c-0.29,0-0.56-0.11-0.77-0.32c-0.05-0.05-0.1-0.11-0.14-0.17
					c-0.04-0.06-0.07-0.12-0.1-0.19c-0.03-0.06-0.05-0.13-0.06-0.2c-0.02-0.07-0.02-0.14-0.02-0.21c0-0.07,0.01-0.14,0.02-0.21
					c0.01-0.07,0.03-0.13,0.06-0.2c0.03-0.07,0.06-0.13,0.1-0.19c0.04-0.06,0.08-0.11,0.14-0.17c0.05-0.05,0.11-0.1,0.17-0.14
					c0.06-0.04,0.12-0.07,0.19-0.1c0.06-0.03,0.13-0.05,0.2-0.06c0.14-0.03,0.28-0.03,0.42,0c0.07,0.01,0.14,0.04,0.2,0.06
					c0.07,0.03,0.13,0.06,0.19,0.1c0.06,0.04,0.11,0.09,0.17,0.14c0.2,0.2,0.31,0.48,0.32,0.77c0,0.07-0.01,0.14-0.02,0.21
					c-0.01,0.07-0.04,0.13-0.06,0.2c-0.03,0.07-0.06,0.13-0.1,0.19c-0.04,0.06-0.08,0.11-0.13,0.17c-0.05,0.05-0.11,0.1-0.17,0.14
					c-0.06,0.04-0.12,0.07-0.19,0.1c-0.06,0.03-0.13,0.05-0.2,0.06C-9.33,272.42-9.4,272.42-9.47,272.42z"/>
			</g>
		</g>
		<g id="Group_1316">
			<g id="Group_1313">
				<path id="Path_738" class="st6" d="M-188.84,253.62c-0.29,0-0.56-0.11-0.77-0.32c-0.2-0.2-0.32-0.48-0.32-0.77
					c0-0.29,0.12-0.56,0.32-0.77c0.2-0.2,0.48-0.31,0.77-0.32c0.29,0,0.56,0.11,0.77,0.32c0.2,0.2,0.32,0.48,0.32,0.77
					c0,0.29-0.12,0.56-0.32,0.77C-188.28,253.51-188.56,253.62-188.84,253.62z"/>
			</g>
			<g id="Group_1314">
				<path id="Path_739" class="st6" d="M-26.87,252.54c0-0.6,0.49-1.09,1.09-1.09l0,0c0.6,0,1.09,0.49,1.09,1.09l0,0
					c0,0.6-0.48,1.08-1.08,1.08c0,0,0,0,0,0l0,0C-26.38,253.63-26.86,253.14-26.87,252.54C-26.87,252.54-26.87,252.54-26.87,252.54z
					 M-43.17,252.54c0-0.6,0.49-1.09,1.09-1.09l0,0c0.6,0,1.09,0.49,1.09,1.09l0,0c0,0.6-0.48,1.08-1.08,1.08c0,0,0,0,0,0l0,0
					C-42.68,253.63-43.17,253.14-43.17,252.54C-43.17,252.54-43.17,252.54-43.17,252.54z M-59.48,252.54c0-0.6,0.49-1.09,1.09-1.09
					l0,0c0.6,0,1.09,0.49,1.09,1.09l0,0c0,0.6-0.48,1.08-1.08,1.08c0,0,0,0,0,0l0,0C-58.99,253.63-59.48,253.14-59.48,252.54
					C-59.48,252.54-59.48,252.54-59.48,252.54z M-75.78,252.54c0-0.6,0.49-1.09,1.09-1.09l0,0c0.6,0,1.09,0.49,1.09,1.09l0,0
					c0,0.6-0.48,1.08-1.08,1.08c0,0,0,0,0,0l0,0C-75.3,253.63-75.78,253.14-75.78,252.54C-75.78,252.54-75.78,252.54-75.78,252.54z
					 M-92.09,252.54c0-0.6,0.49-1.09,1.09-1.09l0,0c0.6,0,1.08,0.48,1.08,1.08c0,0,0,0,0,0l0,0c0,0.6-0.48,1.08-1.08,1.08
					c0,0,0,0,0,0l0,0C-91.6,253.63-92.09,253.14-92.09,252.54C-92.09,252.54-92.09,252.54-92.09,252.54z M-108.4,252.54
					c0-0.6,0.49-1.09,1.09-1.09l0,0c0.6,0,1.08,0.48,1.08,1.08c0,0,0,0,0,0l0,0c0,0.6-0.48,1.08-1.08,1.08c0,0,0,0,0,0l0,0
					C-107.91,253.63-108.39,253.14-108.4,252.54C-108.4,252.54-108.4,252.54-108.4,252.54z M-124.7,252.54
					c0-0.6,0.48-1.08,1.08-1.09c0,0,0,0,0,0l0,0c0.6,0,1.09,0.49,1.09,1.09l0,0c0,0.6-0.48,1.08-1.08,1.08c0,0,0,0,0,0l0,0
					C-124.22,253.63-124.7,253.14-124.7,252.54C-124.7,252.54-124.7,252.54-124.7,252.54L-124.7,252.54z M-141.01,252.54
					c0-0.6,0.48-1.08,1.08-1.09c0,0,0,0,0,0l0,0c0.6,0,1.09,0.49,1.09,1.09l0,0c0,0.6-0.48,1.08-1.08,1.08c0,0,0,0,0,0l0,0
					C-140.52,253.63-141.01,253.15-141.01,252.54C-141.01,252.55-141.01,252.54-141.01,252.54L-141.01,252.54z M-157.32,252.54
					c0-0.6,0.49-1.09,1.09-1.09l0,0c0.6,0,1.09,0.49,1.09,1.09l0,0c0,0.6-0.48,1.08-1.08,1.08c0,0,0,0,0,0l0,0
					C-156.83,253.63-157.32,253.14-157.32,252.54C-157.32,252.54-157.32,252.54-157.32,252.54z M-173.62,252.54
					c0-0.6,0.49-1.09,1.09-1.09l0,0c0.6,0,1.09,0.49,1.09,1.09l0,0c0,0.6-0.48,1.08-1.08,1.08c0,0,0,0,0,0l0,0
					C-173.13,253.63-173.62,253.14-173.62,252.54C-173.62,252.54-173.62,252.54-173.62,252.54z"/>
			</g>
			<g id="Group_1315">
				<path id="Path_740" class="st6" d="M-9.47,253.62c-0.29,0-0.56-0.11-0.77-0.32c-0.2-0.2-0.32-0.48-0.32-0.77
					c0-0.29,0.12-0.56,0.32-0.77c0.2-0.2,0.48-0.32,0.77-0.32c0.29,0,0.56,0.12,0.77,0.32c0.2,0.21,0.31,0.48,0.32,0.77
					c0,0.29-0.12,0.56-0.32,0.77c-0.05,0.05-0.11,0.1-0.17,0.14c-0.06,0.04-0.12,0.07-0.19,0.1c-0.06,0.03-0.13,0.05-0.2,0.06
					C-9.33,253.62-9.4,253.63-9.47,253.62z"/>
			</g>
		</g>
		<g id="Group_1320">
			<g id="Group_1317">
				<path id="Path_741" class="st6" d="M-188.84,234.83c-0.29,0-0.56-0.11-0.77-0.32c-0.05-0.05-0.09-0.11-0.13-0.17
					c-0.04-0.06-0.07-0.12-0.1-0.19c-0.03-0.06-0.05-0.13-0.06-0.2c-0.01-0.07-0.02-0.14-0.02-0.21c0-0.29,0.12-0.56,0.32-0.77
					c0.2-0.2,0.48-0.32,0.77-0.32c0.29,0,0.56,0.12,0.77,0.32c0.2,0.2,0.32,0.48,0.32,0.77c0,0.07-0.01,0.14-0.02,0.21
					c-0.01,0.07-0.04,0.14-0.06,0.2c-0.03,0.07-0.06,0.13-0.1,0.19c-0.04,0.06-0.09,0.11-0.14,0.17
					C-188.28,234.71-188.56,234.83-188.84,234.83z"/>
			</g>
			<g id="Group_1318">
				<path id="Path_742" class="st6" d="M-26.87,233.74c0-0.6,0.49-1.09,1.09-1.09l0,0c0.6,0,1.09,0.49,1.09,1.09l0,0
					c0,0.6-0.49,1.09-1.09,1.09l0,0C-26.38,234.83-26.87,234.34-26.87,233.74z M-43.17,233.74c0-0.6,0.49-1.09,1.09-1.09l0,0
					c0.6,0,1.09,0.49,1.09,1.09l0,0c0,0.6-0.49,1.09-1.09,1.09l0,0C-42.68,234.83-43.17,234.34-43.17,233.74z M-59.48,233.74
					c0-0.6,0.49-1.09,1.09-1.09l0,0c0.6,0,1.09,0.49,1.09,1.09l0,0c0,0.6-0.49,1.09-1.09,1.09l0,0
					C-58.99,234.83-59.48,234.34-59.48,233.74z M-75.78,233.74c0-0.6,0.49-1.09,1.09-1.09l0,0c0.6,0,1.09,0.49,1.09,1.09l0,0
					c0,0.6-0.49,1.09-1.09,1.09l0,0C-75.3,234.83-75.78,234.34-75.78,233.74z M-92.09,233.74c0-0.6,0.49-1.09,1.09-1.09l0,0
					c0.6,0,1.08,0.48,1.08,1.08c0,0,0,0,0,0l0,0c0,0.6-0.48,1.08-1.08,1.09c0,0,0,0,0,0l0,0C-91.6,234.83-92.09,234.34-92.09,233.74
					z M-108.4,233.74c0-0.6,0.49-1.09,1.09-1.09l0,0c0.6,0,1.08,0.48,1.08,1.08c0,0,0,0,0,0l0,0c0,0.6-0.48,1.08-1.08,1.09
					c0,0,0,0,0,0l0,0C-107.91,234.83-108.4,234.34-108.4,233.74z M-124.7,233.74c0-0.6,0.48-1.08,1.08-1.09c0,0,0,0,0,0l0,0
					c0.6,0,1.09,0.49,1.09,1.09l0,0c0,0.6-0.49,1.09-1.09,1.09l0,0C-124.22,234.83-124.7,234.34-124.7,233.74
					C-124.7,233.74-124.7,233.74-124.7,233.74L-124.7,233.74z M-141.01,233.74c0-0.6,0.48-1.08,1.08-1.09c0,0,0,0,0,0l0,0
					c0.6,0,1.09,0.49,1.09,1.09l0,0c0,0.6-0.49,1.09-1.09,1.09l0,0C-140.52,234.83-141.01,234.35-141.01,233.74
					C-141.01,233.75-141.01,233.74-141.01,233.74L-141.01,233.74z M-157.32,233.74c0-0.6,0.49-1.09,1.09-1.09l0,0
					c0.6,0,1.09,0.49,1.09,1.09l0,0c0,0.6-0.49,1.09-1.09,1.09l0,0C-156.83,234.83-157.32,234.34-157.32,233.74z M-173.62,233.74
					c0-0.6,0.49-1.09,1.09-1.09l0,0c0.6,0,1.09,0.49,1.09,1.09l0,0c0,0.6-0.49,1.09-1.09,1.09l0,0
					C-173.14,234.83-173.62,234.34-173.62,233.74z"/>
			</g>
			<g id="Group_1319">
				<path id="Path_743" class="st6" d="M-9.47,234.83c-0.07,0-0.14-0.01-0.21-0.02c-0.07-0.01-0.13-0.03-0.2-0.06
					c-0.07-0.03-0.13-0.06-0.19-0.1c-0.06-0.04-0.11-0.09-0.17-0.14c-0.05-0.05-0.1-0.11-0.14-0.17c-0.04-0.06-0.07-0.12-0.1-0.19
					c-0.03-0.06-0.05-0.13-0.06-0.2c-0.02-0.07-0.02-0.14-0.02-0.21c0-0.29,0.12-0.56,0.32-0.77c0.2-0.2,0.48-0.32,0.77-0.32
					c0.29,0,0.56,0.12,0.77,0.32c0.05,0.05,0.09,0.11,0.13,0.17c0.04,0.06,0.07,0.12,0.1,0.19c0.03,0.06,0.05,0.13,0.06,0.2
					c0.01,0.07,0.02,0.14,0.02,0.21c0,0.07-0.01,0.14-0.02,0.21c-0.01,0.07-0.04,0.13-0.06,0.2c-0.03,0.07-0.06,0.13-0.1,0.19
					c-0.04,0.06-0.08,0.11-0.13,0.17C-8.91,234.71-9.18,234.83-9.47,234.83z"/>
			</g>
		</g>
	</g>
	<g id="Group_1322" transform="translate(-36.988 843.585) rotate(90)">
		<path id="Path_744" class="st6" d="M-382.57,234.79c-0.94,0-1.69-0.76-1.69-1.69c0-6.97,5.55-10.44,10.45-13.5
			c4.74-2.97,8.85-5.53,8.85-10.62c0-5.09-4.11-7.65-8.85-10.62c-4.9-3.06-10.45-6.53-10.45-13.5c0-6.97,5.55-10.44,10.45-13.5
			c4.74-2.97,8.85-5.53,8.85-10.62c0-5.09-4.11-7.65-8.85-10.61c-4.9-3.06-10.45-6.53-10.45-13.5c0-6.97,5.55-10.44,10.45-13.5
			c4.74-2.97,8.85-5.53,8.85-10.62c0-5.09-4.11-7.65-8.85-10.62c-4.9-3.06-10.45-6.53-10.45-13.5s5.55-10.44,10.45-13.5
			c4.74-2.97,8.85-5.53,8.85-10.62s-4.11-7.65-8.85-10.62c-4.9-3.06-10.45-6.53-10.45-13.5s5.55-10.45,10.45-13.5
			c4.74-2.97,8.85-5.53,8.85-10.63s-4.11-7.65-8.85-10.62c-4.9-3.06-10.45-6.53-10.45-13.5c0-0.93,0.76-1.69,1.69-1.69
			c0.94,0,1.69,0.76,1.69,1.69c0,5.09,4.1,7.65,8.86,10.62c4.89,3.06,10.44,6.53,10.44,13.5s-5.55,10.45-10.44,13.5
			c-4.76,2.97-8.86,5.53-8.86,10.62s4.1,7.65,8.86,10.62c4.89,3.06,10.44,6.53,10.44,13.5s-5.55,10.44-10.44,13.5
			c-4.76,2.97-8.86,5.53-8.86,10.62s4.1,7.65,8.86,10.62c4.89,3.06,10.44,6.53,10.44,13.5s-5.55,10.44-10.44,13.5
			c-4.76,2.97-8.86,5.53-8.86,10.62c0,5.09,4.1,7.65,8.86,10.61c4.89,3.06,10.44,6.53,10.44,13.5c0,6.96-5.55,10.44-10.44,13.5
			c-4.76,2.97-8.86,5.53-8.86,10.62c0,5.09,4.1,7.65,8.86,10.62c4.89,3.06,10.44,6.53,10.44,13.5c0,6.97-5.55,10.44-10.44,13.5
			c-4.76,2.97-8.86,5.53-8.86,10.62c0.01,0.93-0.75,1.69-1.68,1.7C-382.56,234.79-382.57,234.79-382.57,234.79z"/>
	</g>
	<g id="Group_1323" transform="translate(-70.496 -151.317)">
		<path id="Path_745" class="st2" d="M-444.64,664.63h-5.35v-5.35h-2.77v5.35h-5.34v2.77h5.35v5.35h2.77v-5.35h5.35L-444.64,664.63z
			"/>
	</g>
</g>
</svg>
