<?xml version="1.0"?>
<svg xmlns="http://www.w3.org/2000/svg" xmlns:xlink="http://www.w3.org/1999/xlink" xmlns:svgjs="http://svgjs.com/svgjs" version="1.1" width="512" height="512" x="0" y="0" viewBox="0 0 59 60" style="enable-background:new 0 0 512 512" xml:space="preserve" class=""><g><!-- Generator: Sketch 51.3 (57544) - http://www.bohemiancoding.com/sketch --><title xmlns="http://www.w3.org/2000/svg">024 - Wine Still</title><desc xmlns="http://www.w3.org/2000/svg">Created with Sketch.</desc><defs xmlns="http://www.w3.org/2000/svg"/><g xmlns="http://www.w3.org/2000/svg" id="Page-1" stroke="none" stroke-width="1" fill="none" fill-rule="evenodd"><g id="024---Wine-Still" fill="#000000" fill-rule="nonzero"><path d="M44.875,18.633 C43.189262,16.9399453 40.8961587,15.9918076 38.507,16 L32.067,16 L26,15.133 L26,7 C26,5.34314575 24.6568542,4 23,4 L23,2 C23,0.8954305 22.1045695,6.76353751e-17 21,0 L10,0 C7.790861,-1.3527075e-16 6,1.790861 6,4 C4.8954305,4 4,4.8954305 4,6 L4,21 C4,22.1045695 4.8954305,23 6,23 L6,23.91 C5.99859175,24.846272 6.32796939,25.752946 6.93,26.47 L8.9,28.844 C4.983,29.561 0,31.052 0,34 C0.112611105,35.2409306 0.873417586,36.3296447 2,36.862 L2,52.841 C1.99858507,54.0196335 2.51705434,55.1388977 3.417,55.9 C5.225,57.431 9.654,60 19,60 C28.346,60 32.772,57.431 34.58,55.9 C35.4810638,55.1394672 36.0006689,54.0201207 36,52.841 L36,36.862 C37.1263121,36.3293246 37.8869954,35.2407869 38,34 C38,30.341 30.194,28.934 26.861,28.5 C26.587,28.457 26.314,28.426 26.039,28.395 C25.609,28.344 25.169,28.295 24.712,28.251 L23.97,28.191 C23.716,28.17 23.463,28.149 23.243,28.142 C22.874,28.111 22.495,28.09 22.06,28.068 L22,28.068 L22,25 L23,25 C24.3097877,24.9954463 25.464465,24.1397697 25.85,22.888 L32.067,22 L38.507,22 C39.3033834,21.9971152 40.0678328,22.3129052 40.63,22.877 L53.881,36.118 C54.6375099,36.8743313 55.7400518,37.169617 56.7733088,36.8926259 C57.8065659,36.6156347 58.6135617,35.8084483 58.8903089,34.7751258 C59.167056,33.7418034 58.8715099,32.6393312 58.115,31.883 L44.875,18.633 Z M21,4 L17,4 L17,2 L21,2 L21,4 Z M6,6 L8,6 L8,21 L6,21 L6,6 Z M8,23.91 L8,23 C9.1045695,23 10,22.1045695 10,21 L10,6 C10,4.8954305 9.1045695,4 8,4 C8,2.8954305 8.8954305,2 10,2 L15,2 L15,4 C13.3431458,4 12,5.34314575 12,7 L12,22 C12,23.6568542 13.3431458,25 15,25 L16,25 L16,28.067 L15.885,28.067 C15.505,28.088 15.125,28.109 14.8,28.137 C14.536,28.147 14.283,28.168 14.025,28.189 C13.661,28.22 13.318,28.252 12.987,28.289 C12.379,28.347 11.7873333,28.4136667 11.212,28.489 L8.46,25.183 C8.16097456,24.8264028 7.9979951,24.3753749 8,23.91 Z M33.286,54.374 C31.687,55.728 27.7,58 19,58 C10.3,58 6.309,55.728 4.709,54.374 C4.25857391,53.9922447 3.9992066,53.4314406 4,52.841 L4,37.841 C7.479,39.187 13.009,40 19,40 C24.991,40 30.517,39.187 34.000001,37.837 L34,52.837 C34.0005927,53.4296206 33.739248,53.9922072 33.286,54.374 Z M36,34 C36,34.3 35.612,34.824 34.525,35.41 C31.6,36.983 25.506,38 19,38 C12.494,38 6.4,36.983 3.474,35.41 C2.385,34.824 2,34.3 2,34 C2,33.56 2.659,32.939 4.034,32.317 C4.745,35.893 17.505,36 19,36 C20.495,36 33.271,35.893 33.966,32.308 C35.336,32.928 36,33.55 36,34 Z M23.119,30.139 C23.353,30.148 23.577,30.167 23.808,30.187 L24.537,30.246 C24.967,30.285 25.388,30.334 25.808,30.384 C26.063,30.412 26.308,30.441 26.566,30.484 C30.079,30.984 31.504,31.669 31.91,32.008 C31.034,32.786 26.389,34.008 18.998,34.008 C11.607,34.008 6.967,32.784 6.086,32.005 C6.451,31.705 7.649,31.125 10.408,30.653 L11.229,31.64 C11.5824622,32.0647069 12.213293,32.1224622 12.638,31.769 C13.0627069,31.4155377 13.1204622,30.784707 12.767,30.36 L12.739,30.327 C12.894,30.31 13.046,30.293 13.209,30.277 C13.536,30.246 13.857,30.212 14.193,30.186 C14.418,30.167 14.643,30.148 14.921,30.137 C15.271,30.107 15.631,30.088 15.938,30.07 L16.004,30.07 C16.0416677,31.145591 16.9237507,31.9985069 18,32 L20,32 C21.0758343,31.9968564 21.9564261,31.143217 21.993,30.068 L22.008,30.068 C22.365,30.088 22.724,30.107 23.119,30.139 Z M20,28.988 L20,30 L18,30 L18,25 L20,25 L20,28.988 Z M23,23 L15,23 C14.4477153,23 14,22.5522847 14,22 L14,7 C14,6.44771525 14.4477153,6 15,6 L23,6 C23.5522847,6 24,6.44771525 24,7 L24,22 C24,22.5522847 23.5522847,23 23,23 Z M26,17.153 L31,17.867 L31,20.133 L26,20.847 L26,17.153 Z M38.507,20 L33,20 L33,17.9999561 L38.509,18 C40.3671373,17.9934004 42.1506757,18.7305098 43.462,20.047 L51.5,28.089 L50.09,29.499 L42.047,21.463 C41.1099944,20.521752 39.8351193,19.9948757 38.507,20 Z M56.7,34.7 C56.3103151,35.0857397 55.6826849,35.0857397 55.293,34.7 L51.5,30.913 L52.91,29.5 L56.71,33.3 C56.8991462,33.483777 57.0058706,33.7362762 57.0058706,34 C57.0058706,34.2637238 56.8991462,34.516223 56.71,34.7 L56.7,34.7 Z" id="Shape" fill="#de323a" data-original="#000000" style="" class=""/><path d="M13,45 C13.5522847,45 14,44.5522847 14,44 C14,43.4477153 13.5522847,43 13,43 L11,43 L11,42 C11,41.4477153 10.5522847,41 10,41 C9.44771525,41 9,41.4477153 9,42 L9,54 C9,54.5522847 9.44771525,55 10,55 C10.5522847,55 11,54.5522847 11,54 L11,52.987 L13,52.987 C13.5522847,52.987 14,52.5392847 14,51.987 C14,51.4347153 13.5522847,50.987 13,50.987 L11,50.987 L11,48.987 L13,48.987 C13.5522847,48.987 14,48.5392847 14,47.987 C14,47.4347153 13.5522847,46.987 13,46.987 L11,46.987 L11,45 L13,45 Z" id="Shape" fill="#de323a" data-original="#000000" style="" class=""/><path d="M16.29,43.29 L16.17,43.44 C16.1321227,43.4957271 16.1018554,43.5562619 16.08,43.62 C16.0511123,43.6766624 16.0308873,43.7373375 16.02,43.8 C16.0083911,43.8660796 16.0017061,43.9329301 16,44 C16.00158,44.1306773 16.028759,44.2597777 16.08,44.38 C16.1307291,44.5011393 16.2017473,44.6127393 16.29,44.71 C16.481743,44.892565 16.7352731,44.9961196 17,45 C17.2651121,44.9980257 17.5193164,44.8941958 17.71,44.71 C17.7982527,44.6127393 17.8692709,44.5011393 17.92,44.38 C17.971241,44.2597777 17.99842,44.1306773 18,44 C18.0023626,43.5937349 17.7586962,43.22642 17.3834815,43.070629 C17.0082668,42.9148381 16.5760905,43.0015401 16.29,43.29 Z" id="Shape" fill="#de323a" data-original="#000000" style="" class=""/><path d="M16.29,47.278 L16.17,47.427 C16.1325428,47.4829724 16.1023036,47.5434508 16.08,47.607 C16.0511123,47.6636624 16.0308873,47.7243375 16.02,47.787 C16.0083911,47.8530796 16.0017061,47.9199301 16,47.987 C16.0015551,48.1173571 16.0287378,48.2461352 16.08,48.366 C16.1307158,48.4874475 16.2017295,48.5993787 16.29,48.697 C16.4819598,48.8792297 16.7353531,48.9827284 17,48.987 C17.2650302,48.9846177 17.5190892,48.8808471 17.71,48.697 C17.7982705,48.5993787 17.8692842,48.4874475 17.92,48.366 C17.9712622,48.2461352 17.9984449,48.1173571 18,47.987 C18.0023626,47.5807349 17.7586962,47.21342 17.3834815,47.057629 C17.0082668,46.9018381 16.5760905,46.9885401 16.29,47.277 L16.29,47.278 Z" id="Shape" fill="#de323a" data-original="#000000" style="" class=""/><path d="M16.29,51.278 L16.17,51.427 C16.1325428,51.4829724 16.1023036,51.5434508 16.08,51.607 C16.0511123,51.6636624 16.0308873,51.7243375 16.02,51.787 C16.0083911,51.8530796 16.0017061,51.9199301 16,51.987 C16.0015551,52.1173571 16.0287378,52.2461352 16.08,52.366 C16.1307158,52.4874475 16.2017295,52.5993787 16.29,52.697 C16.4819598,52.8792297 16.7353531,52.9827284 17,52.987 C17.2650302,52.9846177 17.5190892,52.8808471 17.71,52.697 C17.7982705,52.5993787 17.8692842,52.4874475 17.92,52.366 C17.9712622,52.2461352 17.9984449,52.1173571 18,51.987 C18.0023626,51.5807349 17.7586962,51.21342 17.3834815,51.057629 C17.0082668,50.9018381 16.5760905,50.9885401 16.29,51.277 L16.29,51.278 Z" id="Shape" fill="#de323a" data-original="#000000" style="" class=""/></g></g></g></svg>
